<svg preserveAspectRatio="none" width="100%" height="100%" overflow="visible" style="display: block;" viewBox="0 0 40 40" fill="none" xmlns="http://www.w3.org/2000/svg">
<g id="material-symbols:water-bottle-rounded">
<path id="Vector" d="M16.375 36.6667C15.5139 36.6667 14.7639 36.3817 14.125 35.8117C13.4861 35.2417 13.125 34.5267 13.0417 33.6667L11.75 19.25C11.7222 18.9722 11.7711 18.7156 11.8967 18.48C12.0222 18.2444 12.2094 18.0567 12.4583 17.9167C12.6806 17.7778 12.875 17.6111 13.0417 17.4167C13.2083 17.2222 13.2917 16.9861 13.2917 16.7083C13.2917 16.4583 13.2361 16.2289 13.125 16.02C13.0139 15.8111 12.8472 15.6378 12.625 15.5C12.3472 15.3611 12.1389 15.1461 12 14.855C11.8611 14.5639 11.8333 14.265 11.9167 13.9583L13 9.58333C13.0833 9.19444 13.2778 8.88889 13.5833 8.66667C13.8889 8.44444 14.2361 8.33333 14.625 8.33333H19.1667V6.66667H18.3333C17.8611 6.66667 17.4656 6.50722 17.1467 6.18833C16.8278 5.86944 16.6678 5.47333 16.6667 5C16.6656 4.52667 16.8256 4.13111 17.1467 3.81333C17.4678 3.49556 17.8633 3.33556 18.3333 3.33333H23.3333C23.8056 3.33333 24.2017 3.49333 24.5217 3.81333C24.8417 4.13333 25.0011 4.52889 25 5C24.9989 5.47111 24.8389 5.86722 24.52 6.18833C24.2011 6.50944 23.8056 6.66889 23.3333 6.66667H22.5V8.33333H27.0417C27.4306 8.33333 27.7711 8.44444 28.0633 8.66667C28.3556 8.88889 28.5428 9.19444 28.625 9.58333L29.75 13.9583C29.8333 14.2639 29.8056 14.5628 29.6667 14.855C29.5278 15.1472 29.3194 15.3622 29.0417 15.5C28.8194 15.6111 28.6461 15.7639 28.5217 15.9583C28.3972 16.1528 28.3344 16.375 28.3333 16.625C28.3333 16.9306 28.41 17.1878 28.5633 17.3967C28.7167 17.6056 28.9178 17.7789 29.1667 17.9167C29.4156 18.0544 29.61 18.2422 29.75 18.48C29.89 18.7178 29.9456 18.9744 29.9167 19.25L28.625 33.625C28.5417 34.4861 28.1806 35.2083 27.5417 35.7917C26.9028 36.375 26.1528 36.6667 25.2917 36.6667H16.375Z" fill="var(--fill-0, #EC4B2D)"/>
</g>
</svg>
