<svg preserveAspectRatio="none" width="100%" height="100%" overflow="visible" style="display: block;" viewBox="0 0 24 24" fill="none" xmlns="http://www.w3.org/2000/svg">
<g id="icon-park-solid:buy">
<path id="Subtract" d="M16 2C16.5521 2.00022 17 2.44785 17 3V6.5H21C21.2778 6.50011 21.5433 6.61585 21.7324 6.81934C21.9215 7.02305 22.0176 7.29703 21.9971 7.57422L20.9971 21.0742C20.9582 21.5961 20.5233 21.9998 20 22H4C3.47651 22 3.0418 21.5962 3.00293 21.0742L2.00293 7.57422C1.98239 7.29693 2.07837 7.02308 2.26758 6.81934C2.45676 6.61588 2.72216 6.5 3 6.5H7V3C7 2.44772 7.44772 2 8 2H16ZM8 16C7.44772 16 7 16.4477 7 17C7 17.5523 7.44772 18 8 18H16C16.5522 17.9999 17 17.5522 17 17C17 16.4478 16.5522 16.0001 16 16H8ZM9 6.5H15V4H9V6.5Z" fill="var(--fill-0, #161816)"/>
</g>
</svg>
