<svg preserveAspectRatio="none" width="100%" height="100%" overflow="visible" style="display: block;" viewBox="0 0 40 40" fill="none" xmlns="http://www.w3.org/2000/svg">
<g id="ion:fitness">
<path id="Vector" d="M15.132 11.9406C15.244 11.7165 15.4207 11.5312 15.6393 11.4088C15.8579 11.2863 16.1082 11.2324 16.3578 11.254C16.6074 11.2755 16.8447 11.3716 17.0391 11.5297C17.2334 11.6878 17.3758 11.9006 17.4477 12.1406L20.2914 21.6219L22.6352 16.9406C22.739 16.733 22.8986 16.5584 23.096 16.4364C23.2935 16.3144 23.521 16.2498 23.7531 16.2498C23.9852 16.2498 24.2128 16.3144 24.4102 16.4364C24.6077 16.5584 24.7673 16.733 24.8711 16.9406L27.0227 21.25H34.582C35.7075 18.9296 36.2785 16.3795 36.25 13.8008C36.2008 8.94844 32.3078 5 27.5719 5C23.8148 5 21.3219 7.30781 20 8.98438C18.6813 7.30547 16.1852 5 12.4281 5C7.69219 5 3.79922 8.94844 3.75 13.8008C3.72976 15.4764 3.96502 17.1453 4.44766 18.75H11.7273L15.132 11.9406Z" fill="var(--fill-0, #F49381)"/>
<path id="Vector_2" d="M25.132 23.0594L23.75 20.2953L21.118 25.5594C21.0141 25.7669 20.8545 25.9415 20.6571 26.0634C20.4596 26.1854 20.2321 26.25 20 26.25C19.9651 26.25 19.9292 26.2484 19.8922 26.2453C19.642 26.2246 19.4038 26.1289 19.2088 25.9709C19.0137 25.8129 18.8707 25.5998 18.7984 25.3594L15.9547 15.8781L13.6109 20.5594C13.5076 20.7659 13.3491 20.9397 13.153 21.0616C12.9569 21.1835 12.7309 21.2487 12.5 21.25H5.41797C6.14714 22.7755 7.11771 24.2771 8.32969 25.7547C9.79609 27.5422 12.4547 30.4 18.5945 34.568C19.0086 34.8517 19.4988 35.0036 20.0008 35.0036C20.5028 35.0036 20.993 34.8517 21.407 34.568C27.5469 30.4 30.2055 27.5422 31.6719 25.7547C32.2 25.1118 32.6954 24.4427 33.1562 23.75H26.25C26.0179 23.75 25.7904 23.6854 25.5929 23.5634C25.3955 23.4415 25.2359 23.2669 25.132 23.0594ZM36.25 21.25H34.582C34.1665 22.116 33.69 22.9514 33.1562 23.75H36.25C36.5815 23.75 36.8995 23.6183 37.1339 23.3839C37.3683 23.1495 37.5 22.8315 37.5 22.5C37.5 22.1685 37.3683 21.8505 37.1339 21.6161C36.8995 21.3817 36.5815 21.25 36.25 21.25ZM3.75 18.75C3.41848 18.75 3.10054 18.8817 2.86612 19.1161C2.6317 19.3505 2.5 19.6685 2.5 20C2.5 20.3315 2.6317 20.6495 2.86612 20.8839C3.10054 21.1183 3.41848 21.25 3.75 21.25H5.41797C5.03134 20.4426 4.70696 19.6068 4.44766 18.75H3.75Z" fill="var(--fill-0, #F49381)"/>
</g>
</svg>
