<svg preserveAspectRatio="none" width="100%" height="100%" overflow="visible" style="display: block;" viewBox="0 0 24 24" fill="none" xmlns="http://www.w3.org/2000/svg">
<g id="ph:flag-checkered-fill">
<path id="Vector" d="M21.3113 4.57031C21.1803 4.51086 21.0351 4.4903 20.8928 4.51108C20.7505 4.53186 20.6172 4.59309 20.5088 4.6875C17.8838 6.95812 15.66 5.8575 13.0828 4.58156C10.4128 3.25875 7.38563 1.76156 4.00875 4.6875C3.92806 4.75744 3.86324 4.8438 3.81862 4.9408C3.774 5.03781 3.7506 5.14322 3.75 5.25V21C3.75 21.1989 3.82902 21.3897 3.96967 21.5303C4.11032 21.671 4.30109 21.75 4.5 21.75C4.69891 21.75 4.88968 21.671 5.03033 21.5303C5.17098 21.3897 5.25 21.1989 5.25 21V16.8534C7.76156 14.8697 9.92531 15.9394 12.4172 17.1731C13.9547 17.9334 15.6103 18.7528 17.3859 18.7528C18.6919 18.7528 20.0616 18.3075 21.4941 17.0653C21.5747 16.9954 21.6396 16.909 21.6842 16.812C21.7288 16.715 21.7522 16.6096 21.7528 16.5028V5.25C21.7521 5.10631 21.71 4.96587 21.6318 4.84537C21.5535 4.72488 21.4422 4.6294 21.3113 4.57031ZM5.25 15.0413V10.3012C6.82969 9.24375 8.31 9.21469 9.75 9.61312V14.4637C8.33156 14.1066 6.83156 14.1291 5.25 15.0413ZM9.75 4.76906C10.6172 5.03437 11.4947 5.4675 12.4172 5.92406C13.4728 6.44625 14.5838 6.99562 15.75 7.28906V12.1397C17.1891 12.5381 18.6694 12.5091 20.25 11.4506V16.1484C18.6684 17.3972 17.2247 17.4347 15.75 16.9838V12.1397C13.7231 11.5772 11.7769 10.1709 9.75 9.61312V4.76906Z" fill="var(--fill-0, #161816)"/>
</g>
</svg>
