<svg preserveAspectRatio="none" width="100%" height="100%" overflow="visible" style="display: block;" viewBox="0 0 228 24" fill="none" xmlns="http://www.w3.org/2000/svg">
<g id="formes" clip-path="url(#clip0_0_7)">
<g id="Union">
<path d="M100.807 0.00577956C101.794 0.00577986 102.608 0.239698 103.253 0.710336C103.899 1.18098 104.288 1.7924 104.423 2.54769C104.544 3.23533 104.491 3.86951 104.265 4.45852C104.037 5.04751 103.679 5.56321 103.189 6.01129C102.698 6.45939 102.095 6.83145 101.379 7.12455C100.664 7.41764 99.8857 7.61487 99.0431 7.71351L103.279 13.6571C103.321 13.7416 103.346 13.8036 103.355 13.8459C103.375 13.9586 103.341 14.0658 103.253 14.1729C103.166 14.2771 103.039 14.3305 102.87 14.3306H95.8189L95.822 14.3223C95.2301 14.3223 94.8101 14.1333 94.5593 13.7556L89.8586 7.09923C89.805 7.02882 89.757 6.96677 89.7204 6.91043C89.681 6.85408 89.6555 6.78352 89.6414 6.70181C89.6273 6.62011 89.6471 6.49043 89.7006 6.32422L89.8473 5.84231C89.9516 5.47876 90.1883 5.29545 90.5518 5.29545H93.4234C94.3535 5.29545 95.0159 5.1067 95.4133 4.72906C95.8106 4.35142 95.9655 3.90883 95.8754 3.40719C95.8246 3.11412 95.6583 2.883 95.3849 2.71392C95.1088 2.54487 94.7115 2.46321 94.1902 2.46319H89.481L86.4062 13.7614C86.3048 14.139 86.0708 14.3278 85.7044 14.3278H78.4615C78.1939 14.3278 78.0444 14.2433 78.0162 14.0771C77.9965 13.9644 78.0051 13.86 78.0446 13.7614L81.6491 0.552361C81.7534 0.188841 81.9901 0.00577956 82.3537 0.00577956H100.807Z" fill="var(--fill-0, white)"/>
<path d="M9.49733 0C9.96227 3.77353e-06 10.3343 0.0196546 10.6161 0.0619239C10.8979 0.104202 11.239 0.217057 11.6363 0.397414L25.8485 6.63411L27.5197 0.543829C27.6239 0.183164 27.8579 2.97812e-05 28.2242 0H30.9467C31.2143 4.18659e-07 31.3637 0.0901668 31.3947 0.273291C31.4088 0.357837 31.3947 0.448219 31.3581 0.546857L27.7762 13.7556C27.6747 14.1333 27.4322 14.3223 27.0518 14.3223H25.7894C25.3666 14.3223 25.003 14.2967 24.6987 14.2488C24.3943 14.2009 24.0365 14.0855 23.6251 13.9023L8.33041 7.39233L6.62269 13.7556C6.52123 14.1333 6.28724 14.3223 5.92088 14.3223H3.19843C2.93072 14.3223 2.78131 14.2376 2.75313 14.0713C2.73343 13.9586 2.74203 13.8542 2.78148 13.7556L6.36343 0.546857C6.46771 0.183306 6.71009 0 7.09056 0H9.49733Z" fill="var(--fill-0, white)"/>
<path d="M41.7487 0C42.0163 3.01071e-05 42.1657 0.0901772 42.1967 0.273291C42.2108 0.357837 42.1967 0.448219 42.1601 0.546857L40.2182 7.74159C39.9589 8.66596 39.8858 9.45235 40.0013 10.0977C40.1056 10.6867 40.3619 11.1293 40.7733 11.4223C41.1848 11.7183 41.7767 11.8646 42.5517 11.8646H46.1843C47.3934 11.8646 48.3799 11.5039 49.138 10.7825C49.896 10.061 50.4569 9.04639 50.8176 7.74159L52.7593 0.546857C52.8664 0.183306 53.1032 0 53.4696 0H56.0228C56.2764 4.41783e-07 56.4203 0.0901448 56.4513 0.273291C56.4654 0.357837 56.4624 0.448219 56.437 0.546857L54.4728 7.72755C54.2276 8.65193 53.85 9.51153 53.3455 10.3091C52.8382 11.1066 52.2097 11.8084 51.4572 12.4087C50.7048 13.0118 49.8312 13.4795 48.8336 13.8148C47.8359 14.1502 46.7255 14.3193 45.5023 14.3193H36.6335V14.3223C34.8326 14.3223 33.4741 14.0321 32.5638 13.4515C31.6507 12.871 31.104 12.0535 30.918 11.0051C30.7574 10.0948 30.8534 9.00411 31.2056 7.7303L33.1699 0.549609C33.2741 0.18324 33.5081 0 33.8744 0H41.7487Z" fill="var(--fill-0, white)"/>
<path d="M79.4287 0C79.6258 5.86881e-06 79.7328 0.0478783 79.7498 0.146416C79.7555 0.174597 79.7555 0.194524 79.7498 0.208615C79.7442 0.222706 79.7442 0.245233 79.7498 0.270539L79.2286 2.22348C79.1722 2.37848 79.0171 2.45466 78.7635 2.45466H72.5551L69.4267 14.046C69.3732 14.2292 69.221 14.3193 68.9674 14.3193H61.3862L61.392 14.3223C61.1806 14.3223 61.068 14.2743 61.0483 14.1756L61.0678 14.0487L64.1962 2.45741H58.03C57.8327 2.45741 57.7254 2.40961 57.7085 2.311L57.6945 2.22651L58.2157 0.273291C58.2834 0.0901412 58.4413 1.32498e-05 58.6949 0H79.4287Z" fill="var(--fill-0, white)"/>
<path d="M116.198 0C116.466 4.18525e-07 116.615 0.0901436 116.646 0.273291C116.66 0.357837 116.646 0.448219 116.609 0.546857L113.027 13.7556C112.926 14.1332 112.692 14.3223 112.326 14.3223H105.041C104.787 14.3223 104.646 14.2376 104.615 14.0713C104.601 13.9868 104.604 13.8824 104.624 13.7556L108.228 0.546857C108.332 0.183306 108.569 0 108.936 0H116.198Z" fill="var(--fill-0, white)"/>
<path d="M122.437 6.05065C122.705 6.05068 122.854 6.14658 122.891 6.341C122.905 6.42555 122.891 6.51572 122.854 6.61154L122.477 7.9447C122.372 8.31945 122.133 8.50834 121.752 8.50834H116.874L116.871 8.50531C116.632 8.50531 116.496 8.41514 116.465 8.23477C116.454 8.16435 116.457 8.0686 116.477 7.9447L116.854 6.61154C116.959 6.23673 117.193 6.05066 117.559 6.05065H122.437Z" fill="var(--fill-0, white)"/>
</g>
<g id="Union_2">
<path fill-rule="evenodd" clip-rule="evenodd" d="M145.256 0C146.271 0 147.055 0.197235 147.61 0.588965C148.165 0.980698 148.506 1.53325 148.63 2.24908C148.746 2.90848 148.72 3.46657 148.557 3.92873C148.391 4.39088 148.165 4.77975 147.875 5.09537C147.584 5.41097 147.272 5.66176 146.931 5.85057C146.59 6.03939 146.305 6.19174 146.071 6.30165C146.359 6.41439 146.643 6.66516 146.922 7.05684C147.204 7.44856 147.396 7.93891 147.497 8.52788C147.607 9.15914 147.548 9.81583 147.317 10.5006C147.086 11.1854 146.694 11.8139 146.139 12.3804C145.584 12.9468 144.879 13.4118 144.019 13.7782C143.163 14.1418 142.157 14.3251 141.001 14.3251H123.035V14.3223C122.781 14.3223 122.64 14.2376 122.609 14.0713C122.595 13.9868 122.598 13.8824 122.618 13.7556L126.222 0.546857C126.327 0.183306 126.563 0 126.93 0H145.256ZM131.307 11.8676H136.247C136.993 11.8676 137.574 11.7491 137.989 11.5096C138.403 11.27 138.707 10.9882 138.896 10.6641C139.085 10.3401 139.189 10.016 139.209 9.6948C139.228 9.37074 139.223 9.11701 139.192 8.93383C139.054 8.14474 138.442 7.75288 137.357 7.75287H134.274L134.271 7.75012C134.032 7.75012 133.896 7.6656 133.868 7.49939C133.854 7.41486 133.857 7.31899 133.88 7.20629L134.251 5.84231C134.356 5.47876 134.593 5.29545 134.959 5.29545H138.38C138.732 5.29545 139.059 5.23344 139.361 5.10666C139.662 4.97984 139.916 4.8192 140.119 4.62475C140.325 4.42747 140.48 4.21596 140.587 3.98487C140.694 3.75382 140.728 3.53403 140.691 3.3227C140.646 3.07188 140.505 2.86327 140.265 2.70263C140.026 2.54204 139.654 2.46044 139.147 2.46044H133.848L131.307 11.8676Z" fill="var(--fill-0, #EE332E)"/>
<path d="M166.799 0C166.996 4.66861e-06 167.16 0.0338566 167.292 0.104307C167.425 0.174757 167.537 0.273438 167.627 0.397414L177.088 13.5866C177.142 13.7274 177.17 13.8119 177.176 13.8374C177.198 13.9642 177.164 14.077 177.077 14.1729C176.99 14.2715 176.823 14.3193 176.587 14.3193H167.845L167.847 14.3223C167.411 14.3223 167.084 14.1841 166.867 13.9051L160.993 5.50104L152.804 11.8646H162.388C162.642 11.8646 162.783 11.9549 162.817 12.1352C162.834 12.231 162.823 12.3297 162.783 12.4255L162.428 13.7587C162.324 14.1334 162.09 14.3193 161.726 14.3193H147.644C147.461 14.3193 147.353 14.2348 147.325 14.0686C147.302 13.9417 147.39 13.7951 147.585 13.626L164.42 0.400166C164.767 0.135253 165.102 0 165.427 0H166.799Z" fill="var(--fill-0, #EE332E)"/>
<path d="M183.99 0C184.371 5.9725e-06 184.647 0.140983 184.824 0.419981L188.775 6.55237L196.283 0.400166C196.481 0.245184 196.653 0.140852 196.799 0.0844917C196.943 0.0281577 197.123 8.59775e-06 197.334 0H198.749C198.932 1.48838e-05 199.037 0.0704857 199.062 0.211367C199.085 0.338163 199.023 0.46217 198.876 0.588965L189.04 8.63219L187.665 13.7556C187.615 13.9529 187.524 14.0967 187.392 14.1869C187.259 14.2771 187.11 14.3223 186.941 14.3223H179.678C179.425 14.3223 179.284 14.2376 179.253 14.0713C179.239 13.9868 179.241 13.8824 179.261 13.7556L180.639 8.75906L175.251 0.71584C175.217 0.687658 175.192 0.645329 175.175 0.588965C175.158 0.532629 175.147 0.490262 175.141 0.46209C175.113 0.307155 175.164 0.191665 175.29 0.115591C175.417 0.0395253 175.544 2.70612e-05 175.671 0H183.99Z" fill="var(--fill-0, #EE332E)"/>
</g>
<g id="Union_3">
<path d="M47.3934 19.2286C47.6639 19.2286 47.9289 19.2569 48.1882 19.3161C48.4474 19.3753 48.6757 19.4485 48.8702 19.533L48.6729 20.232C48.4221 20.1278 48.1966 20.0545 47.9994 20.0094C47.7993 19.9643 47.599 19.9417 47.3961 19.9417C47.1256 19.9417 46.9086 19.9982 46.748 20.1137C46.5874 20.2292 46.5001 20.3814 46.486 20.573C46.4775 20.6773 46.4917 20.7646 46.5284 20.835C46.565 20.9083 46.6155 20.9676 46.6803 21.0183C46.7451 21.0691 46.8213 21.1114 46.9115 21.1452C47.0016 21.1818 47.0974 21.2155 47.196 21.2465C47.3426 21.2916 47.4863 21.3425 47.6301 21.3932C47.7737 21.4467 47.9035 21.5143 48.0162 21.5988C48.1289 21.6833 48.2164 21.7906 48.2812 21.9202C48.346 22.0499 48.3684 22.2133 48.3572 22.4049C48.3403 22.6557 48.2755 22.8783 48.1684 23.0756C48.0585 23.2729 47.912 23.4392 47.7289 23.5773C47.5457 23.7154 47.3259 23.8197 47.0694 23.893C46.8158 23.9663 46.5338 24 46.2295 24C46.0688 24 45.9167 23.9887 45.7701 23.9689C45.6236 23.9492 45.4911 23.924 45.3727 23.893C45.2515 23.862 45.1472 23.8281 45.057 23.7887C44.9669 23.7521 44.8936 23.7154 44.8429 23.6816L45.0375 22.9883C45.2038 23.0729 45.3953 23.1461 45.6067 23.2025C45.8208 23.2616 46.0463 23.2897 46.2886 23.2897C46.4634 23.2897 46.6213 23.273 46.765 23.2336C46.9087 23.1969 47.0326 23.146 47.1369 23.0783C47.2411 23.0107 47.323 22.9263 47.3879 22.8249C47.4499 22.7234 47.4865 22.6077 47.4949 22.4781H47.4922C47.5006 22.3738 47.4779 22.2864 47.4272 22.2216C47.3765 22.154 47.3059 22.1004 47.2186 22.0554C47.1313 22.0131 47.0297 21.9736 46.9142 21.9398C46.7987 21.906 46.6803 21.8724 46.5592 21.8357C46.4183 21.7907 46.2887 21.737 46.1675 21.675C46.0464 21.613 45.945 21.5368 45.8604 21.4466C45.7759 21.3564 45.7109 21.2467 45.6686 21.1199C45.6263 20.9903 45.6094 20.8435 45.6207 20.6716C45.6348 20.4574 45.6884 20.2601 45.7814 20.0826C45.8716 19.9051 45.9955 19.7528 46.1505 19.626C46.3055 19.4992 46.486 19.4034 46.6973 19.3329C46.9087 19.2653 47.1398 19.2286 47.3934 19.2286Z" fill="var(--fill-0, white)"/>
<path fill-rule="evenodd" clip-rule="evenodd" d="M56.5699 19.2286C56.8377 19.2286 57.0774 19.2654 57.2916 19.3414C57.5028 19.4147 57.6832 19.5274 57.8269 19.6739C57.9706 19.8204 58.0778 20.0037 58.1483 20.2235C58.2159 20.4433 58.2412 20.6943 58.2215 20.9817C58.2074 21.1592 58.1762 21.3593 58.1227 21.5762C58.0692 21.7932 57.9933 22.0132 57.8918 22.2387C57.7903 22.4613 57.6663 22.6784 57.517 22.8926C57.3676 23.1039 57.1898 23.2928 56.9841 23.4562C56.7785 23.6196 56.5446 23.752 56.2826 23.8506C56.0205 23.9492 55.7244 24 55.3975 24C55.1298 24 54.8903 23.9633 54.6762 23.8872C54.4648 23.8139 54.2843 23.7013 54.1406 23.5547C53.9969 23.4082 53.8899 23.2249 53.8194 23.0051C53.7518 22.7853 53.7265 22.5346 53.7462 22.2472C53.7603 22.0696 53.7912 21.8694 53.8447 21.6524C53.8983 21.4355 53.9745 21.2157 54.0759 20.9903C54.1774 20.7676 54.3014 20.5505 54.4508 20.3364C54.6001 20.125 54.7776 19.9362 54.9833 19.7727C55.189 19.6093 55.423 19.4767 55.6851 19.378C55.9472 19.2794 56.2431 19.2286 56.5699 19.2286ZM56.4601 19.9417C56.2742 19.9417 56.1022 19.9727 55.9416 20.0375C55.781 20.1023 55.6343 20.1898 55.4991 20.2997C55.3638 20.4097 55.2426 20.5421 55.1355 20.6886C55.0284 20.838 54.9353 20.9959 54.8564 21.1678C54.7804 21.3368 54.7183 21.5117 54.6704 21.6948C54.6253 21.8779 54.5944 22.0554 54.5831 22.2301C54.5719 22.4048 54.5831 22.557 54.6197 22.6895C54.6564 22.8219 54.7128 22.932 54.7918 23.0222C54.8707 23.1123 54.9721 23.1772 55.0904 23.2223C55.2115 23.2674 55.3469 23.2897 55.4991 23.2897C55.6851 23.2897 55.8569 23.2587 56.0176 23.1939C56.1782 23.1291 56.3248 23.0418 56.4601 22.9319C56.5954 22.822 56.7166 22.6896 56.8237 22.543C56.9308 22.3937 57.0236 22.2357 57.0997 22.0666C57.1758 21.8976 57.2379 21.72 57.2858 21.5396C57.3309 21.3565 57.362 21.179 57.3733 21.0043C57.3987 20.6549 57.3281 20.3928 57.1647 20.2153C57.0012 20.0377 56.7645 19.9475 56.4574 19.9475L56.4601 19.9417Z" fill="var(--fill-0, white)"/>
<path d="M69.6238 19.2286C69.8943 19.2286 70.1593 19.2569 70.4186 19.3161C70.6778 19.3753 70.9061 19.4485 71.1006 19.533L70.9032 20.232C70.6525 20.1278 70.427 20.0545 70.2298 20.0094C70.0297 19.9643 69.8294 19.9417 69.6265 19.9417C69.356 19.9417 69.139 19.9982 68.9784 20.1137C68.8178 20.2292 68.7305 20.3814 68.7164 20.573C68.7079 20.6773 68.7221 20.7646 68.7588 20.835C68.7954 20.9083 68.8459 20.9676 68.9107 21.0183C68.9755 21.0691 69.0517 21.1114 69.1419 21.1452C69.232 21.1818 69.3278 21.2155 69.4264 21.2465C69.573 21.2916 69.7167 21.3425 69.8605 21.3932C70.0041 21.4467 70.1339 21.5143 70.2466 21.5988C70.3593 21.6833 70.4468 21.7906 70.5116 21.9202C70.5764 22.0499 70.5988 22.2133 70.5876 22.4049C70.5707 22.6557 70.5059 22.8783 70.3988 23.0756C70.2889 23.2729 70.1424 23.4392 69.9593 23.5773C69.7761 23.7154 69.5563 23.8197 69.2998 23.893C69.0462 23.9663 68.7642 24 68.4599 24C68.2992 24 68.1471 23.9887 68.0005 23.9689C67.854 23.9492 67.7215 23.924 67.6031 23.893C67.4819 23.862 67.3776 23.8281 67.2874 23.7887C67.1973 23.7521 67.124 23.7154 67.0733 23.6816L67.2679 22.9883C67.4341 23.0729 67.6257 23.1461 67.8371 23.2025C68.0484 23.2616 68.2767 23.2897 68.519 23.2897C68.6938 23.2897 68.8517 23.273 68.9954 23.2336C69.1391 23.1969 69.263 23.146 69.3673 23.0783C69.4715 23.0107 69.5534 22.9263 69.6183 22.8249C69.6803 22.7234 69.7169 22.6077 69.7253 22.4781H69.7226C69.731 22.3738 69.7083 22.2864 69.6576 22.2216C69.6069 22.154 69.5363 22.1004 69.449 22.0554C69.3617 22.0131 69.2601 21.9736 69.1446 21.9398C69.0291 21.906 68.9107 21.8724 68.7896 21.8357C68.6487 21.7907 68.5191 21.737 68.3979 21.675C68.2768 21.613 68.1754 21.5368 68.0908 21.4466C68.0063 21.3564 67.9413 21.2467 67.899 21.1199C67.8567 20.9903 67.8398 20.8435 67.8511 20.6716C67.8652 20.4574 67.9188 20.2601 68.0118 20.0826C68.102 19.9051 68.2259 19.7528 68.3809 19.626C68.5359 19.4992 68.7164 19.4034 68.9277 19.3329C69.1391 19.2653 69.3702 19.2286 69.6238 19.2286Z" fill="var(--fill-0, white)"/>
<path fill-rule="evenodd" clip-rule="evenodd" d="M104.578 19.2286C104.846 19.2286 105.086 19.2654 105.297 19.3414C105.511 19.4147 105.689 19.5274 105.832 19.6739C105.976 19.8204 106.083 20.0037 106.154 20.2235C106.222 20.4433 106.247 20.6943 106.227 20.9817C106.213 21.1592 106.182 21.3593 106.128 21.5762C106.075 21.7932 105.999 22.0132 105.897 22.2387C105.796 22.4613 105.672 22.6784 105.523 22.8926C105.373 23.1039 105.195 23.2928 104.99 23.4562C104.784 23.6196 104.55 23.752 104.288 23.8506C104.026 23.9492 103.73 24 103.403 24C103.135 24 102.896 23.9633 102.682 23.8872C102.47 23.8139 102.29 23.7013 102.146 23.5547C102.002 23.4082 101.895 23.2249 101.825 23.0051C101.757 22.7853 101.732 22.5346 101.752 22.2472C101.766 22.0696 101.797 21.8694 101.85 21.6524C101.904 21.4355 101.98 21.2157 102.082 20.9903C102.183 20.7676 102.307 20.5505 102.456 20.3364C102.606 20.125 102.783 19.9362 102.989 19.7727C103.195 19.6093 103.429 19.4767 103.691 19.378C103.953 19.2794 104.249 19.2286 104.576 19.2286H104.578ZM104.471 19.9417C104.285 19.9417 104.113 19.9727 103.953 20.0375C103.792 20.1023 103.645 20.1898 103.51 20.2997C103.375 20.4096 103.254 20.5421 103.147 20.6886C103.04 20.838 102.947 20.9959 102.868 21.1678C102.792 21.3369 102.73 21.5117 102.682 21.6948C102.637 21.878 102.606 22.0554 102.594 22.2301C102.583 22.4048 102.594 22.557 102.631 22.6895C102.668 22.8219 102.724 22.932 102.803 23.0222C102.882 23.1124 102.983 23.1772 103.102 23.2223C103.223 23.2673 103.358 23.2897 103.51 23.2897C103.696 23.2897 103.868 23.2588 104.029 23.1939C104.19 23.1291 104.336 23.0418 104.471 22.9319C104.606 22.822 104.728 22.6896 104.835 22.543C104.942 22.3937 105.035 22.2357 105.114 22.0666C105.19 21.8976 105.252 21.72 105.3 21.5396C105.345 21.3565 105.376 21.179 105.387 21.0043C105.413 20.6549 105.342 20.3928 105.179 20.2153C105.015 20.0377 104.778 19.9475 104.468 19.9475L104.471 19.9417Z" fill="var(--fill-0, white)"/>
<path d="M15.308 22.0499C15.2826 22.1315 15.2657 22.2075 15.2516 22.2808C15.2375 22.354 15.2291 22.4246 15.2235 22.4894C15.215 22.5993 15.2233 22.7037 15.243 22.7995C15.2628 22.8953 15.3025 22.9798 15.3617 23.053C15.418 23.1263 15.4969 23.1828 15.5983 23.225C15.697 23.2673 15.8237 23.2897 15.9787 23.2897V23.287C16.2154 23.287 16.4269 23.2362 16.61 23.1375C16.7932 23.0389 16.951 22.8784 17.0834 22.6586C17.1313 22.5797 17.1736 22.4865 17.213 22.3851C17.2525 22.2808 17.2949 22.1568 17.3372 22.0075L18.0838 19.3161H18.921L18.1262 22.1737C18.0783 22.3456 18.0305 22.4923 17.9826 22.6135C17.9375 22.7346 17.8839 22.8473 17.8276 22.9487C17.7402 23.1009 17.6386 23.2448 17.5202 23.3745C17.4019 23.504 17.261 23.614 17.1005 23.7069C16.9399 23.7971 16.7566 23.8703 16.5481 23.9211C16.3424 23.9718 16.1056 23.9973 15.8436 23.9973C15.5561 23.9973 15.3136 23.9605 15.1192 23.8845C14.9247 23.8084 14.7696 23.7069 14.6541 23.5773C14.5385 23.4505 14.4597 23.3011 14.4146 23.132C14.3695 22.9629 14.3554 22.7824 14.3695 22.5964C14.378 22.4866 14.3921 22.3795 14.4146 22.2753C14.4372 22.171 14.4626 22.0639 14.4936 21.9568L15.229 19.3134H16.0662L15.308 22.0499Z" fill="var(--fill-0, white)"/>
<path d="M36.2842 19.2286C36.4477 19.2286 36.6311 19.2427 36.8369 19.2737C37.0425 19.3047 37.234 19.3472 37.4115 19.4091L37.2227 20.0966C37.0537 20.0459 36.8958 20.0067 36.7493 19.9813C36.6 19.956 36.4422 19.9417 36.276 19.9417C36.0787 19.9417 35.8926 19.9698 35.7178 20.0262C35.5431 20.0825 35.3824 20.1617 35.2387 20.2631C35.095 20.3646 34.9682 20.4829 34.8583 20.6209C34.7456 20.759 34.6499 20.9084 34.571 21.069C34.4921 21.2296 34.4271 21.3987 34.3792 21.5762C34.3313 21.7537 34.3033 21.9342 34.2892 22.1145C34.2723 22.3456 34.289 22.5373 34.3426 22.6895C34.3933 22.8416 34.4722 22.9602 34.5765 23.0475C34.6808 23.1349 34.8049 23.1969 34.9486 23.2336C35.0923 23.2702 35.2502 23.287 35.4165 23.287C35.5996 23.287 35.7884 23.2729 35.9829 23.2363C36.1773 23.1997 36.3745 23.1489 36.5746 23.0841L36.3717 23.8253C36.1829 23.8901 35.9799 23.935 35.7657 23.9604C35.5516 23.9858 35.3599 23.9973 35.188 23.9973C34.9119 23.9973 34.661 23.9634 34.4356 23.893C34.2101 23.8225 34.0214 23.7153 33.8692 23.5688C33.7142 23.4222 33.6013 23.2334 33.5252 23.0051C33.4491 22.7769 33.4239 22.5036 33.4465 22.188C33.4634 21.9626 33.5 21.7342 33.562 21.5002C33.6241 21.2663 33.7084 21.0408 33.8155 20.821C33.9226 20.6012 34.0552 20.3954 34.2102 20.2009C34.3652 20.0065 34.5428 19.8374 34.7485 19.6937C34.9542 19.55 35.1852 19.4344 35.4473 19.3527C35.7093 19.2682 35.9884 19.2286 36.2842 19.2286Z" fill="var(--fill-0, white)"/>
<path d="M80.8796 22.0499C80.8543 22.1315 80.8373 22.2075 80.8232 22.2808C80.8091 22.354 80.7979 22.4246 80.7951 22.4894C80.7867 22.5993 80.7949 22.7037 80.8146 22.7995C80.8344 22.8953 80.8741 22.9798 80.9333 23.053C80.9896 23.1263 81.0685 23.1828 81.17 23.225C81.2686 23.2673 81.3954 23.2897 81.5503 23.2897L81.5448 23.287C81.7815 23.2869 81.9927 23.2361 82.1759 23.1375C82.359 23.0389 82.5171 22.8784 82.6495 22.6586C82.6974 22.5797 82.7396 22.4865 82.7819 22.3851C82.8213 22.2808 82.8638 22.1568 82.906 22.0075L83.6554 19.3161H84.4926L83.6978 22.1737C83.6499 22.3456 83.6021 22.4923 83.5542 22.6135C83.5091 22.7346 83.4555 22.8473 83.3992 22.9487C83.3118 23.1009 83.2102 23.2448 83.0918 23.3745C82.9735 23.504 82.8327 23.614 82.6721 23.7069C82.5115 23.7971 82.3282 23.8703 82.1197 23.9211C81.914 23.9718 81.6772 23.9973 81.4152 23.9973C81.1277 23.9973 80.8853 23.9605 80.6908 23.8845C80.4963 23.8084 80.3412 23.7069 80.2257 23.5773C80.1101 23.4505 80.0313 23.3011 79.9862 23.132C79.9412 22.9629 79.927 22.7824 79.9411 22.5964C79.9496 22.4866 79.9637 22.3795 79.9862 22.2753C80.0088 22.171 80.0342 22.0639 80.0652 21.9568L80.8006 19.3134H81.6378L80.8796 22.0499Z" fill="var(--fill-0, white)"/>
<path d="M7.83997 23.9125H7.02836L6.23353 21.8751C6.03907 21.3791 5.88685 20.9393 5.77694 20.5532H5.7574C5.68695 20.9337 5.58257 21.3706 5.44448 21.8638L4.8723 23.9156H4.03537L5.31485 19.3161H6.12647L6.9213 21.3538C7.11573 21.847 7.26798 22.2865 7.37788 22.6754H7.39742C7.44815 22.3767 7.55253 21.9398 7.71034 21.3648L8.28252 19.3134H9.11946L7.83997 23.9125Z" fill="var(--fill-0, white)"/>
<path fill-rule="evenodd" clip-rule="evenodd" d="M11.7489 19.3161C11.9828 19.3161 12.1885 19.3303 12.3632 19.3585C12.5379 19.3867 12.6929 19.429 12.831 19.4881C12.9945 19.5558 13.1355 19.6429 13.251 19.7444C13.3666 19.8486 13.4596 19.9644 13.5301 20.0997C13.6005 20.2321 13.6483 20.3787 13.6765 20.5364C13.7047 20.6971 13.7103 20.8661 13.6991 21.0437C13.6906 21.1564 13.6708 21.286 13.6427 21.4353C13.6117 21.5847 13.5667 21.7427 13.5075 21.9062C13.4483 22.0724 13.3721 22.2388 13.2763 22.4107C13.1833 22.5825 13.0678 22.7461 12.9326 22.9039C12.7973 23.0617 12.6365 23.2081 12.4562 23.3434C12.273 23.4786 12.0645 23.5914 11.8279 23.6844C11.6419 23.7548 11.436 23.8111 11.2106 23.8534C10.9823 23.8956 10.7173 23.9156 10.4157 23.9156H9.10817L10.3877 19.3161H11.7489ZM10.1339 23.2052L10.1312 23.208H10.6497C10.8638 23.208 11.0556 23.1885 11.2191 23.1518C11.3825 23.1152 11.5346 23.0615 11.6726 22.9911C11.853 22.9009 12.011 22.7881 12.149 22.6529C12.2871 22.5176 12.4055 22.3683 12.5041 22.2021C12.6027 22.0358 12.6817 21.861 12.738 21.6723C12.7972 21.4834 12.8339 21.2945 12.8536 21.1001C12.8762 20.8493 12.8535 20.6406 12.7774 20.4828C12.7041 20.3222 12.5773 20.2039 12.3998 20.125C12.3124 20.0855 12.2109 20.0574 12.0954 20.0405C11.977 20.0236 11.8332 20.0152 11.6614 20.0152H11.0245L10.1339 23.2052Z" fill="var(--fill-0, white)"/>
<path fill-rule="evenodd" clip-rule="evenodd" d="M27.1338 23.9156H26.277L26.1416 22.7431H24.5157L23.7968 23.9156H22.8641L25.75 19.3161H26.5305L27.1338 23.9156ZM25.8851 20.4407C25.6963 20.8013 25.4963 21.1564 25.2821 21.503L24.9524 22.0386H26.0627L26.0065 21.5426C25.9586 21.1453 25.9247 20.7788 25.905 20.4407H25.8851Z" fill="var(--fill-0, white)"/>
<path d="M31.8373 23.9125H31.0256L30.2308 21.8751C30.0364 21.3791 29.8841 20.9393 29.7742 20.5532H29.7547C29.6842 20.9337 29.5799 21.3706 29.4418 21.8638L28.8696 23.9156H28.0327L29.3121 19.3161H30.1238L30.9186 21.3538C31.113 21.847 31.2653 22.2865 31.3752 22.6754H31.3947C31.4454 22.3767 31.5498 21.9398 31.7076 21.3648L32.2798 19.3134H33.1167L31.8373 23.9125Z" fill="var(--fill-0, white)"/>
<path d="M78.3462 23.9125H77.5346L76.7398 21.8751C76.5453 21.3791 76.3931 20.9393 76.2832 20.5532H76.2637C76.1932 20.9337 76.0888 21.3706 75.9507 21.8638L75.3786 23.9156H74.5416L75.8211 19.3161H76.6327L77.4275 21.3538C77.622 21.847 77.7742 22.2865 77.8841 22.6754H77.9037C77.9544 22.3767 78.0588 21.9398 78.2166 21.3648L78.7888 19.3134H79.6257L78.3462 23.9125Z" fill="var(--fill-0, white)"/>
<path d="M110.378 23.9125H109.567L108.772 21.8751C108.577 21.3791 108.425 20.9393 108.315 20.5532H108.296C108.225 20.9337 108.121 21.3706 107.983 21.8638L107.411 23.9156H106.574L107.853 19.3161H108.665L109.46 21.3538C109.654 21.847 109.806 22.2865 109.916 22.6754H109.936C109.986 22.3767 110.091 21.9398 110.249 21.3648L110.821 19.3134H111.658L110.378 23.9125Z" fill="var(--fill-0, white)"/>
<path d="M3.95638 20.0207H1.9217L1.58896 21.2099H3.33632L3.14201 21.9144H1.39466L1.0311 23.208H3.19265L2.99808 23.9125H-0.00041623L1.27907 19.3161H4.15371L3.95638 20.0207Z" fill="var(--fill-0, white)"/>
<path fill-rule="evenodd" clip-rule="evenodd" d="M21.3958 19.3134C21.593 19.3134 21.7649 19.3188 21.9058 19.3329C22.0466 19.347 22.1706 19.3696 22.2748 19.4006C22.5707 19.488 22.7821 19.6261 22.9089 19.8121C23.0358 20.0009 23.0893 20.2209 23.0724 20.4745C23.0583 20.6605 23.0219 20.8352 22.9571 20.9958C22.8951 21.1592 22.8019 21.3057 22.6808 21.4353C22.5596 21.5649 22.4103 21.6807 22.2327 21.7766C22.0524 21.8724 21.841 21.9484 21.5959 22.002V22.016L22.4749 23.907H21.5507L20.7617 22.1258H20.2063L19.7131 23.907V23.9125H18.8762L20.1557 19.3134H21.3958ZM20.4064 21.427L20.4036 21.4298H20.7248C20.8769 21.4298 21.0151 21.4243 21.1363 21.413C21.2575 21.4017 21.3676 21.3848 21.4663 21.3566C21.6888 21.2974 21.8663 21.2015 22.0015 21.0662C22.1368 20.931 22.2128 20.7591 22.227 20.545C22.2354 20.4351 22.2158 20.3391 22.1736 20.2574C22.1285 20.1757 22.0523 20.1138 21.9396 20.0743C21.8861 20.0546 21.8156 20.0432 21.731 20.032C21.6437 20.0235 21.5366 20.0179 21.4071 20.0179H20.7983L20.4064 21.427Z" fill="var(--fill-0, white)"/>
<path d="M41.3232 20.0207H39.2882L38.9585 21.2099H40.7031L40.5116 21.9144H38.7615L38.3979 23.208H40.5594L40.3676 23.9125H37.3691L38.6486 19.3161H41.5233L41.3232 20.0207Z" fill="var(--fill-0, white)"/>
<path fill-rule="evenodd" clip-rule="evenodd" d="M51.5057 19.3134C51.9368 19.3134 52.2665 19.3529 52.4948 19.429C52.7625 19.522 52.9513 19.6599 53.0612 19.8459C53.1711 20.0319 53.2162 20.2489 53.1993 20.4941C53.1824 20.7392 53.1176 20.9564 53.0106 21.1565C52.9006 21.3566 52.7511 21.5285 52.5595 21.675C52.3679 21.8187 52.134 21.9313 51.8607 22.0102C51.5873 22.0891 51.2773 22.1316 50.9307 22.1316C50.756 22.1316 50.5839 22.1203 50.4232 22.0977L49.916 23.9125H49.0791L50.3586 19.3134H51.5057ZM50.6151 21.3987C50.7306 21.4184 50.863 21.4298 51.018 21.4298C51.2321 21.4298 51.4209 21.4071 51.5844 21.3648C51.7478 21.3226 51.8831 21.2607 51.9958 21.1818C52.1057 21.1029 52.1931 21.0099 52.2523 20.8972C52.3115 20.7873 52.3482 20.6631 52.3566 20.5307C52.3651 20.4236 52.3425 20.3334 52.2889 20.2601C52.2382 20.1869 52.165 20.1306 52.0721 20.0911C52.0157 20.0658 51.9396 20.0487 51.8494 20.0375C51.7592 20.0262 51.6465 20.0207 51.5084 20.0207H50.9982L50.6151 21.3987Z" fill="var(--fill-0, white)"/>
<path fill-rule="evenodd" clip-rule="evenodd" d="M61.0788 19.3134C61.2789 19.3134 61.4479 19.3188 61.5888 19.3329C61.7296 19.347 61.8536 19.3696 61.9579 19.4006C62.2537 19.488 62.4651 19.6261 62.592 19.8121C62.7188 20.0009 62.7724 20.2209 62.7554 20.4745C62.7413 20.6605 62.7049 20.8352 62.6401 20.9958C62.5781 21.1592 62.485 21.3057 62.3638 21.4353C62.2426 21.5649 62.0933 21.6807 61.9158 21.7766C61.7354 21.8724 61.524 21.9484 61.2789 22.002V22.016L62.161 23.907H61.2365L60.4475 22.1258H59.8924L59.3992 23.907L59.3961 23.9125H58.5592L59.8387 19.3134H61.0788ZM60.0924 21.427L60.0894 21.4298H60.4109C60.563 21.4298 60.7012 21.4243 60.8223 21.413C60.9435 21.4017 61.0534 21.3848 61.152 21.3566C61.3718 21.2974 61.5521 21.2015 61.6873 21.0662C61.8226 20.931 61.8989 20.7591 61.913 20.545C61.9215 20.4351 61.9016 20.3391 61.8593 20.2574C61.8142 20.1757 61.7381 20.1138 61.6254 20.0743C61.5719 20.0546 61.5013 20.0432 61.4168 20.032C61.3295 20.0235 61.2224 20.0179 61.0929 20.0179H60.4841L60.0924 21.427Z" fill="var(--fill-0, white)"/>
<path d="M67.3496 20.0207H65.9097L64.8245 23.9125H63.9903L65.0755 20.0207H63.6353L63.8269 19.3161H67.5442L67.3496 20.0207Z" fill="var(--fill-0, white)"/>
<path d="M88.827 20.0207H87.3899L86.305 23.9125H85.4677L86.5529 20.0207H85.1127L85.3043 19.3161H89.0216L88.827 20.0207Z" fill="var(--fill-0, white)"/>
<path fill-rule="evenodd" clip-rule="evenodd" d="M91.1469 19.3134C91.3469 19.3134 91.5159 19.3188 91.6568 19.3329C91.7977 19.347 91.9216 19.3696 92.0259 19.4006C92.3218 19.488 92.5332 19.6261 92.66 19.8121C92.7868 20.0009 92.8404 20.2209 92.8235 20.4745C92.8094 20.6605 92.773 20.8352 92.7082 20.9958C92.6462 21.1592 92.553 21.3057 92.4318 21.4353C92.3107 21.5649 92.1613 21.6807 91.9838 21.7766C91.8034 21.8724 91.5921 21.9484 91.3469 22.002V22.016L92.226 23.907H91.3018L90.5128 22.1258H89.9574L89.4642 23.907V23.9125H88.6272L89.9067 19.3134H91.1469ZM90.1605 21.427L90.1574 21.4298H90.4789C90.631 21.4298 90.7692 21.4243 90.8903 21.413C91.0115 21.4017 91.1214 21.3848 91.2201 21.3566C91.4427 21.2974 91.6201 21.2015 91.7554 21.0662C91.8906 20.931 91.9669 20.7591 91.981 20.545C91.9895 20.4351 91.9696 20.3391 91.9274 20.2574C91.8823 20.1757 91.8061 20.1138 91.6934 20.0743C91.6399 20.0546 91.5694 20.0432 91.4848 20.032C91.3975 20.0235 91.2904 20.0179 91.1609 20.0179H90.5521L90.1605 21.427Z" fill="var(--fill-0, white)"/>
<path d="M93.8632 23.9125H93.0291L94.3085 19.3161H95.1427L93.8632 23.9125Z" fill="var(--fill-0, white)"/>
<path d="M99.5137 20.0207H98.0765L96.9916 23.9125H96.1544L97.2396 20.0207H95.7994L95.9909 19.3161H99.7083L99.5137 20.0207Z" fill="var(--fill-0, white)"/>
<path d="M100.151 23.9125H99.3139L100.593 19.3161H101.43L100.151 23.9125Z" fill="var(--fill-0, white)"/>
</g>
<g id="Union_4">
<path d="M191.723 12.3721C191.904 12.3721 192.005 12.4341 192.028 12.5609C192.039 12.6201 192.033 12.6905 192.011 12.7665L191.664 14.063C191.585 14.3335 191.413 14.4687 191.151 14.4687H189.72C189.539 14.4687 189.438 14.4067 189.415 14.2799C189.401 14.2067 189.404 14.1363 189.421 14.063L189.768 12.7665C189.804 12.6341 189.869 12.5355 189.959 12.4706C190.049 12.4058 190.157 12.3721 190.283 12.3721H191.723Z" fill="var(--fill-0, white)"/>
<path d="M203.58 8.33055C203.687 8.33058 203.749 8.37014 203.763 8.44614C203.766 8.46305 203.769 8.4829 203.769 8.49981C203.769 8.5167 203.766 8.53922 203.757 8.56173L203.597 9.13666C203.554 9.30011 203.45 9.37912 203.29 9.37913H199.268C199.071 9.37913 198.899 9.39879 198.752 9.44105C198.606 9.48333 198.476 9.55939 198.363 9.66645C198.25 9.77354 198.152 9.92013 198.067 10.1005C197.983 10.2808 197.904 10.5093 197.833 10.7855L197.574 11.7688C197.504 12.0225 197.459 12.2396 197.433 12.4228C197.408 12.6059 197.408 12.7637 197.433 12.8961C197.467 13.0821 197.546 13.2146 197.676 13.2935C197.803 13.3724 197.974 13.4119 198.191 13.4119H202.25C202.357 13.4119 202.419 13.4514 202.433 13.5275C202.441 13.5698 202.433 13.6121 202.419 13.6516L202.267 14.2235C202.222 14.3841 202.123 14.4632 201.968 14.4632H195.801L195.796 14.4687C195.489 14.4687 195.21 14.4209 194.956 14.3251C194.702 14.2292 194.477 14.0968 194.283 13.9249C194.088 13.753 193.927 13.5471 193.801 13.3076C193.674 13.0681 193.586 12.8061 193.536 12.5243C193.474 12.1777 193.474 11.8309 193.533 11.4843C193.592 11.1405 193.702 10.8136 193.86 10.5037C194.018 10.1937 194.22 9.9061 194.463 9.63838C194.708 9.37065 194.984 9.14225 195.294 8.95061C195.604 8.75901 195.942 8.60696 196.309 8.49706C196.672 8.38715 197.053 8.33055 197.45 8.33055H203.58Z" fill="var(--fill-0, white)"/>
<path fill-rule="evenodd" clip-rule="evenodd" d="M211.848 8.33055C212.166 8.33055 212.454 8.37867 212.716 8.47449C212.975 8.57031 213.201 8.70275 213.395 8.87465C213.587 9.04656 213.745 9.24955 213.871 9.48344C213.995 9.71734 214.083 9.97381 214.134 10.2472C214.196 10.6022 214.196 10.9517 214.134 11.2955C214.072 11.6393 213.959 11.969 213.798 12.2818C213.638 12.5947 213.435 12.885 213.187 13.1499C212.939 13.4176 212.66 13.6487 212.347 13.8432C212.034 14.0376 211.693 14.1898 211.33 14.3025C210.966 14.4124 210.588 14.4687 210.196 14.4687H205.783C205.471 14.4687 205.186 14.4182 204.929 14.3196C204.673 14.2209 204.447 14.0828 204.253 13.9109C204.061 13.7361 203.901 13.5303 203.774 13.2935C203.647 13.0569 203.56 12.8004 203.512 12.5243C203.45 12.1692 203.447 11.8225 203.509 11.4815C203.568 11.1405 203.678 10.8135 203.836 10.5006C203.994 10.1879 204.194 9.9005 204.439 9.63563C204.684 9.37072 204.96 9.14225 205.273 8.95061C205.583 8.75901 205.921 8.60696 206.288 8.49706C206.651 8.38716 207.034 8.33056 207.437 8.33055H211.848ZM208.649 9.38188C208.475 9.38188 208.32 9.40451 208.179 9.44958C208.041 9.49467 207.917 9.57061 207.809 9.68049C207.702 9.78756 207.607 9.9342 207.522 10.1145C207.438 10.2949 207.358 10.5204 207.285 10.791L207.026 11.7746C206.891 12.2987 206.843 12.682 206.888 12.93C206.919 13.1047 206.992 13.2287 207.108 13.3048C207.223 13.3809 207.376 13.4177 207.57 13.4177H208.802C208.988 13.4177 209.154 13.3895 209.3 13.3332C209.447 13.2768 209.579 13.1837 209.701 13.0569C209.822 12.93 209.932 12.7637 210.025 12.5524C210.121 12.341 210.208 12.0845 210.292 11.7774L210.552 10.7937L210.555 10.7882C210.614 10.5769 210.656 10.3936 210.681 10.2386C210.707 10.0808 210.71 9.95113 210.681 9.84122C210.65 9.66652 210.569 9.54523 210.433 9.48041C210.298 9.41559 210.112 9.38189 209.873 9.38188H208.649Z" fill="var(--fill-0, white)"/>
<path d="M216.859 8.33055C217.062 8.33055 217.234 8.40949 217.369 8.56448L220.563 12.3804L226.1 8.56448C226.326 8.42079 226.559 8.34184 226.796 8.33055H227.515C227.622 8.33058 227.684 8.37014 227.698 8.44614C227.701 8.46305 227.704 8.4829 227.704 8.49981C227.704 8.5167 227.701 8.53922 227.693 8.56173L226.162 14.2235C226.12 14.3841 226.018 14.466 225.863 14.466H222.885L222.879 14.4687C222.763 14.4687 222.701 14.4321 222.69 14.3617C222.685 14.3251 222.685 14.28 222.693 14.2265L223.319 11.9494L220.165 14.2265C220.047 14.3111 219.937 14.3729 219.832 14.4095C219.728 14.449 219.632 14.4687 219.542 14.4687H219.021C218.931 14.4687 218.838 14.449 218.745 14.4095C218.652 14.3701 218.564 14.3083 218.482 14.2265L216.253 11.9494L215.639 14.2265C215.597 14.3871 215.492 14.4687 215.332 14.4687H214.495C214.382 14.4687 214.317 14.4321 214.306 14.3617C214.298 14.3138 214.3 14.2688 214.317 14.2265L215.839 8.56448C215.884 8.40954 215.986 8.33055 216.149 8.33055H216.859Z" fill="var(--fill-0, white)"/>
</g>
</g>
<defs>
<clipPath id="clip0_0_7">
<rect width="227.698" height="24" fill="white"/>
</clipPath>
</defs>
</svg>
