<svg preserveAspectRatio="none" width="100%" height="100%" overflow="visible" style="display: block;" viewBox="0 0 40 40" fill="none" xmlns="http://www.w3.org/2000/svg">
<g id="streamline:watch-circle-heartbeat-monitor-2-remix">
<path id="Vector" fill-rule="evenodd" clip-rule="evenodd" d="M12.6857 1.25714C13.4887 0.453186 14.578 0.0010003 15.7143 0L24.2857 0C25.4224 0 26.5124 0.451529 27.3162 1.25526C28.1199 2.05898 28.5714 3.14907 28.5714 4.28571V8.12571C30.4521 9.48211 31.9834 11.2662 33.039 13.3307C34.0947 15.3953 34.6444 17.6812 34.6429 20C34.6444 22.3188 34.0947 24.6047 33.039 26.6693C31.9834 28.7338 30.4521 30.5179 28.5714 31.8743V35.7143C28.5714 36.8509 28.1199 37.941 27.3162 38.7447C26.5124 39.5485 25.4224 40 24.2857 40H15.7143C14.5776 40 13.4876 39.5485 12.6838 38.7447C11.8801 37.941 11.4286 36.8509 11.4286 35.7143V31.8743C9.5479 30.5179 8.0166 28.7338 6.96097 26.6693C5.90534 24.6047 5.35562 22.3188 5.35715 20C5.35562 17.6812 5.90534 15.3953 6.96097 13.3307C8.0166 11.2662 9.5479 9.48211 11.4286 8.12571V4.28571C11.4286 3.14857 11.88 2.05714 12.6857 1.25714ZM19.5629 14.48C19.4438 14.1683 19.2397 13.8963 18.9739 13.6946C18.708 13.493 18.391 13.3699 18.0588 13.3393C17.7265 13.3086 17.3923 13.3717 17.0941 13.5213C16.7959 13.6709 16.5455 13.9011 16.3714 14.1857L13.9771 18.0943H12.7429C12.2693 18.0943 11.8151 18.2824 11.4802 18.6173C11.1453 18.9522 10.9571 19.4064 10.9571 19.88C10.9571 20.3536 11.1453 20.8078 11.4802 21.1427C11.8151 21.4776 12.2693 21.6657 12.7429 21.6657H14.9829C15.2881 21.6668 15.5885 21.589 15.8548 21.4398C16.1211 21.2906 16.3443 21.0751 16.5029 20.8143L17.5314 19.14L19.98 25.52C20.1014 25.8364 20.3103 26.1117 20.5823 26.3138C20.8543 26.5159 21.1782 26.6364 21.5162 26.6612C21.8541 26.6861 22.1922 26.6143 22.4909 26.4542C22.7895 26.2941 23.0365 26.0524 23.2029 25.7571L25.5086 21.6657H27.2629C27.7365 21.6657 28.1907 21.4776 28.5256 21.1427C28.8604 20.8078 29.0486 20.3536 29.0486 19.88C29.0486 19.4064 28.8604 18.9522 28.5256 18.6173C28.1907 18.2824 27.7365 18.0943 27.2629 18.0943H24.4629C24.1465 18.0962 23.8363 18.1815 23.5635 18.3415C23.2906 18.5015 23.0647 18.7306 22.9086 19.0057L21.9543 20.7L19.5629 14.48ZM8.92857 20C8.92857 18.5461 9.21494 17.1064 9.77134 15.7631C10.3277 14.4199 11.1432 13.1994 12.1713 12.1713C13.1994 11.1432 14.4199 10.3277 15.7632 9.77133C17.1064 9.21494 18.5461 8.92857 20 8.92857C21.4539 8.92857 22.8936 9.21494 24.2369 9.77133C25.5801 10.3277 26.8006 11.1432 27.8287 12.1713C28.8568 13.1994 29.6723 14.4199 30.2287 15.7631C30.7851 17.1064 31.0714 18.5461 31.0714 20C31.0714 22.9363 29.905 25.7524 27.8287 27.8287C25.7524 29.905 22.9363 31.0714 20 31.0714C17.0637 31.0714 14.2476 29.905 12.1713 27.8287C10.095 25.7524 8.92857 22.9363 8.92857 20Z" fill="var(--fill-0, #D92929)"/>
</g>
</svg>
