<svg preserveAspectRatio="none" width="100%" height="100%" overflow="visible" style="display: block;" viewBox="0 0 115 32" fill="none" xmlns="http://www.w3.org/2000/svg">
<g id="Layer_1" clip-path="url(#clip0_0_50)">
<path id="Vector" d="M53.3303 17.8056C53.3056 17.6511 53.3118 17.441 53.355 17.169L54.1832 14.2457C54.4119 13.4237 54.9248 13.0158 55.7283 13.0158H59.5662L62.7677 1.20525C62.8542 0.988937 62.8789 0.791166 62.848 0.605756C62.78 0.204035 62.4463 0.00626505 61.8653 0.00626505H55.8951C55.0917 0.00626505 54.5787 0.407986 54.3439 1.20525L50.6789 14.5609L19.5054 0.877691C18.634 0.48215 17.8861 0.234937 17.2681 0.142232C16.6501 0.0495273 15.8343 0.00626505 14.8145 0.00626505H9.53653C8.70218 0.00626505 8.17068 0.407986 7.94201 1.20525L0.0868137 30.1662C0.000289218 30.3826 -0.0182518 30.6112 0.0250105 30.8584C0.0929941 31.2293 0.414371 31.4085 1.0015 31.4085H6.97169C7.77514 31.4085 8.2881 30.9944 8.51059 30.1662L12.2559 16.2111L45.7965 30.4876C46.6988 30.8893 47.4837 31.1427 48.1512 31.2478C48.8187 31.3529 49.6159 31.4085 50.543 31.4085H53.3179C54.1523 31.4085 54.6838 30.9944 54.9063 30.1662L58.0953 18.3989H54.2203C53.6949 18.3989 53.3983 18.2011 53.3303 17.8056Z" fill="var(--fill-0, #231F20)"/>
<path id="Vector_2" d="M114.583 5.0493C114.305 3.48568 113.563 2.26816 112.346 1.40909C111.128 0.550027 109.41 0.117404 107.185 0.117404H66.9947C66.1912 0.117404 65.6783 0.519125 65.4434 1.31639L62.2544 13.0096H66.4137C67.0009 13.0096 67.3284 13.2197 67.4088 13.6461C67.4397 13.8315 67.4088 14.0293 67.3284 14.2394L66.5003 17.1627C66.2716 17.9847 65.7463 18.3988 64.9119 18.3988H60.7835L57.5388 30.2897C57.4955 30.5679 57.4894 30.7965 57.5203 30.9819C57.5882 31.3528 57.8973 31.532 58.4535 31.532H97.853C100.387 31.532 102.587 31.1303 104.472 30.333C106.351 29.5357 107.902 28.516 109.12 27.2676C110.337 26.0253 111.196 24.6533 111.703 23.1453C112.21 21.6435 112.34 20.1973 112.099 18.8191C111.87 17.5274 111.45 16.452 110.838 15.5929C110.226 14.7339 109.602 14.1838 108.971 13.9366C109.484 13.6894 110.115 13.3618 110.856 12.9478C111.598 12.5337 112.29 11.9774 112.927 11.2914C113.563 10.5992 114.058 9.74635 114.422 8.73278C114.781 7.7192 114.837 6.48932 114.583 5.0493ZM96.9384 8.8502C96.7035 9.35699 96.3636 9.82669 95.9124 10.2531C95.4613 10.6858 94.9112 11.038 94.2499 11.31C93.5886 11.5881 92.8717 11.7241 92.0992 11.7241H84.5963C83.7928 11.7241 83.2798 12.1258 83.045 12.923L82.2292 15.9143C82.1797 16.1615 82.1736 16.3778 82.2045 16.5571C82.2724 16.9279 82.5629 17.1071 83.0883 17.1071H89.8495C92.229 17.1071 93.5701 17.9724 93.8729 19.6967C93.9409 20.0984 93.9533 20.6546 93.91 21.3654C93.8667 22.0761 93.6381 22.7868 93.224 23.4914C92.8099 24.2021 92.1424 24.8202 91.2339 25.3455C90.3254 25.8708 89.0523 26.1304 87.4145 26.1304H76.5804L82.155 5.50047H93.774C94.8865 5.50047 95.7023 5.6797 96.2276 6.03197C96.7529 6.38425 97.062 6.83542 97.1609 7.39164C97.2412 7.84899 97.1608 8.33723 96.9322 8.84402L96.9384 8.8502Z" fill="var(--fill-0, #EE2F2F)"/>
<path id="Vector_3" d="M59.5599 13.0096L58.0951 18.3988H60.7898L62.2545 13.0096H59.5599Z" fill="var(--fill-0, #231F20)"/>
</g>
<defs>
<clipPath id="clip0_0_50">
<rect width="114.738" height="31.532" fill="white"/>
</clipPath>
</defs>
</svg>
