<svg preserveAspectRatio="none" width="100%" height="100%" overflow="visible" style="display: block;" viewBox="0 0 725 124" fill="none" xmlns="http://www.w3.org/2000/svg">
<g id="Product Info Container">
<g id="Union">
<path d="M3.67954 115.91C5.71176 115.91 7.3591 117.557 7.3591 119.589C7.35902 121.622 5.71171 123.269 3.67954 123.269C1.64741 123.269 5.02821e-05 121.621 -3.05176e-05 119.589C-3.05176e-05 117.557 1.64736 115.91 3.67954 115.91Z" fill="var(--fill-0, #EC4B2D)"/>
<path d="M22.0784 115.91C24.1104 115.91 25.758 117.557 25.758 119.589C25.7579 121.621 24.1103 123.269 22.0784 123.269C20.0463 123.269 18.3989 121.621 18.3988 119.589C18.3988 117.557 20.0462 115.91 22.0784 115.91Z" fill="var(--fill-0, #EC4B2D)"/>
<path d="M40.4762 115.91C42.5084 115.91 44.1558 117.557 44.1558 119.589C44.1557 121.622 42.5084 123.269 40.4762 123.269C38.4441 123.269 36.7967 121.621 36.7967 119.589C36.7967 117.557 38.4441 115.91 40.4762 115.91Z" fill="var(--fill-0, #EC4B2D)"/>
<path d="M58.8751 115.91C60.9071 115.91 62.5546 117.557 62.5546 119.589C62.5546 121.621 60.907 123.269 58.8751 123.269C56.8429 123.269 55.1956 121.621 55.1955 119.589C55.1955 117.557 56.8429 115.91 58.8751 115.91Z" fill="var(--fill-0, #EC4B2D)"/>
<path d="M77.2729 115.91C79.3051 115.91 80.9525 117.557 80.9525 119.589C80.9524 121.622 79.3051 123.269 77.2729 123.269C75.2408 123.269 73.5934 121.621 73.5933 119.589C73.5933 117.557 75.2408 115.91 77.2729 115.91Z" fill="var(--fill-0, #EC4B2D)"/>
<path d="M95.6718 115.91C97.7038 115.91 99.3513 117.557 99.3513 119.589C99.3512 121.621 97.7038 123.269 95.6718 123.269C93.6396 123.269 91.9923 121.621 91.9922 119.589C91.9922 117.557 93.6396 115.91 95.6718 115.91Z" fill="var(--fill-0, #EC4B2D)"/>
<path d="M114.07 115.91C116.102 115.91 117.749 117.557 117.749 119.589C117.749 121.622 116.102 123.269 114.07 123.269C112.038 123.269 110.39 121.621 110.39 119.589C110.39 117.557 112.037 115.91 114.07 115.91Z" fill="var(--fill-0, #EC4B2D)"/>
<path d="M132.468 115.91C134.501 115.91 136.148 117.557 136.148 119.589C136.148 121.621 134.5 123.269 132.468 123.269C130.436 123.269 128.789 121.621 128.789 119.589C128.789 117.557 130.436 115.91 132.468 115.91Z" fill="var(--fill-0, #EC4B2D)"/>
<path d="M150.866 115.91C152.899 115.91 154.546 117.557 154.546 119.589C154.546 121.622 152.898 123.269 150.866 123.269C148.834 123.269 147.187 121.621 147.187 119.589C147.187 117.557 148.834 115.91 150.866 115.91Z" fill="var(--fill-0, #EC4B2D)"/>
<path d="M169.265 115.91C171.297 115.91 172.945 117.557 172.945 119.589C172.945 121.621 171.297 123.269 169.265 123.269C167.233 123.269 165.586 121.621 165.586 119.589C165.586 117.557 167.233 115.91 169.265 115.91Z" fill="var(--fill-0, #EC4B2D)"/>
<path d="M187.663 115.91C189.695 115.91 191.343 117.557 191.343 119.589C191.342 121.622 189.695 123.269 187.663 123.269C185.631 123.269 183.983 121.621 183.983 119.589C183.983 117.557 185.631 115.91 187.663 115.91Z" fill="var(--fill-0, #EC4B2D)"/>
<path d="M206.062 115.91C208.094 115.91 209.741 117.557 209.741 119.589C209.741 121.621 208.094 123.269 206.062 123.269C204.03 123.269 202.382 121.621 202.382 119.589C202.382 117.557 204.03 115.91 206.062 115.91Z" fill="var(--fill-0, #EC4B2D)"/>
<path d="M224.46 115.91C226.492 115.91 228.139 117.557 228.139 119.589C228.139 121.622 226.492 123.269 224.46 123.269C222.428 123.269 220.78 121.621 220.78 119.589C220.78 117.557 222.428 115.91 224.46 115.91Z" fill="var(--fill-0, #EC4B2D)"/>
<path d="M242.859 115.91C244.891 115.91 246.538 117.557 246.538 119.589C246.538 121.621 244.891 123.269 242.859 123.269C240.826 123.269 239.179 121.621 239.179 119.589C239.179 117.557 240.826 115.91 242.859 115.91Z" fill="var(--fill-0, #EC4B2D)"/>
<path d="M261.256 115.91C263.289 115.91 264.936 117.557 264.936 119.589C264.936 121.622 263.289 123.269 261.256 123.269C259.224 123.269 257.577 121.621 257.577 119.589C257.577 117.557 259.224 115.91 261.256 115.91Z" fill="var(--fill-0, #EC4B2D)"/>
<path d="M279.655 115.91C281.687 115.91 283.335 117.557 283.335 119.589C283.335 121.621 281.687 123.269 279.655 123.269C277.623 123.269 275.976 121.621 275.976 119.589C275.976 117.557 277.623 115.91 279.655 115.91Z" fill="var(--fill-0, #EC4B2D)"/>
<path d="M298.053 115.91C300.085 115.91 301.733 117.557 301.733 119.589C301.733 121.622 300.085 123.269 298.053 123.269C296.021 123.269 294.374 121.621 294.373 119.589C294.373 117.557 296.021 115.91 298.053 115.91Z" fill="var(--fill-0, #EC4B2D)"/>
<path d="M316.452 115.91C318.484 115.91 320.131 117.557 320.131 119.589C320.131 121.621 318.484 123.269 316.452 123.269C314.42 123.269 312.772 121.621 312.772 119.589C312.772 117.557 314.42 115.91 316.452 115.91Z" fill="var(--fill-0, #EC4B2D)"/>
<path d="M334.85 115.91C336.882 115.91 338.529 117.557 338.529 119.589C338.529 121.622 336.882 123.269 334.85 123.269C332.818 123.269 331.17 121.621 331.17 119.589C331.17 117.557 332.818 115.91 334.85 115.91Z" fill="var(--fill-0, #EC4B2D)"/>
<path d="M353.249 115.91C355.281 115.91 356.928 117.557 356.928 119.589C356.928 121.621 355.281 123.269 353.249 123.269C351.216 123.269 349.569 121.621 349.569 119.589C349.569 117.557 351.216 115.91 353.249 115.91Z" fill="var(--fill-0, #EC4B2D)"/>
<path d="M371.646 115.91C373.679 115.91 375.326 117.557 375.326 119.589C375.326 121.622 373.679 123.269 371.646 123.269C369.614 123.269 367.967 121.621 367.967 119.589C367.967 117.557 369.614 115.91 371.646 115.91Z" fill="var(--fill-0, #EC4B2D)"/>
<path d="M390.045 115.91C392.077 115.91 393.725 117.557 393.725 119.589C393.725 121.622 392.077 123.269 390.045 123.269C388.013 123.269 386.366 121.621 386.366 119.589C386.366 117.557 388.013 115.91 390.045 115.91Z" fill="var(--fill-0, #EC4B2D)"/>
<path d="M408.443 115.91C410.475 115.91 412.123 117.557 412.123 119.589C412.123 121.622 410.475 123.269 408.443 123.269C406.411 123.269 404.764 121.621 404.764 119.589C404.764 117.557 406.411 115.91 408.443 115.91Z" fill="var(--fill-0, #EC4B2D)"/>
<path d="M426.842 115.91C428.874 115.91 430.522 117.557 430.522 119.589C430.521 121.622 428.874 123.269 426.842 123.269C424.81 123.269 423.162 121.621 423.162 119.589C423.162 117.557 424.81 115.91 426.842 115.91Z" fill="var(--fill-0, #EC4B2D)"/>
<path d="M445.241 115.91C447.273 115.91 448.92 117.557 448.92 119.589C448.92 121.621 447.273 123.269 445.241 123.269C443.209 123.269 441.561 121.621 441.561 119.589C441.561 117.557 443.209 115.91 445.241 115.91Z" fill="var(--fill-0, #EC4B2D)"/>
<path d="M463.639 115.91C465.671 115.91 467.318 117.557 467.318 119.589C467.318 121.622 465.671 123.269 463.639 123.269C461.606 123.269 459.959 121.621 459.959 119.589C459.959 117.557 461.606 115.91 463.639 115.91Z" fill="var(--fill-0, #EC4B2D)"/>
<path d="M482.037 115.91C484.069 115.91 485.717 117.557 485.717 119.589C485.717 121.621 484.069 123.269 482.037 123.269C480.005 123.269 478.358 121.621 478.358 119.589C478.358 117.557 480.005 115.91 482.037 115.91Z" fill="var(--fill-0, #EC4B2D)"/>
<path d="M500.435 115.91C502.468 115.91 504.115 117.557 504.115 119.589C504.115 121.622 502.467 123.269 500.435 123.269C498.403 123.269 496.756 121.621 496.756 119.589C496.756 117.557 498.403 115.91 500.435 115.91Z" fill="var(--fill-0, #EC4B2D)"/>
<path d="M518.834 115.91C520.866 115.91 522.514 117.557 522.514 119.589C522.514 121.621 520.866 123.269 518.834 123.269C516.802 123.269 515.155 121.621 515.155 119.589C515.155 117.557 516.802 115.91 518.834 115.91Z" fill="var(--fill-0, #EC4B2D)"/>
<path d="M537.232 115.91C539.264 115.91 540.912 117.557 540.912 119.589C540.911 121.622 539.264 123.269 537.232 123.269C535.2 123.269 533.553 121.621 533.552 119.589C533.552 117.557 535.2 115.91 537.232 115.91Z" fill="var(--fill-0, #EC4B2D)"/>
<path d="M555.631 115.91C557.663 115.91 559.31 117.557 559.31 119.589C559.31 121.621 557.663 123.269 555.631 123.269C553.599 123.269 551.951 121.621 551.951 119.589C551.951 117.557 553.599 115.91 555.631 115.91Z" fill="var(--fill-0, #EC4B2D)"/>
<path d="M574.029 115.91C576.061 115.91 577.708 117.557 577.708 119.589C577.708 121.622 576.061 123.269 574.029 123.269C571.997 123.269 570.349 121.621 570.349 119.589C570.349 117.557 571.997 115.91 574.029 115.91Z" fill="var(--fill-0, #EC4B2D)"/>
<path d="M592.428 115.91C594.46 115.91 596.107 117.557 596.107 119.589C596.107 121.621 594.46 123.269 592.428 123.269C590.395 123.269 588.748 121.621 588.748 119.589C588.748 117.557 590.395 115.91 592.428 115.91Z" fill="var(--fill-0, #EC4B2D)"/>
<path d="M610.825 115.91C612.858 115.91 614.505 117.557 614.505 119.589C614.505 121.622 612.858 123.269 610.825 123.269C608.793 123.269 607.146 121.621 607.146 119.589C607.146 117.557 608.793 115.91 610.825 115.91Z" fill="var(--fill-0, #EC4B2D)"/>
<path d="M629.224 115.91C631.256 115.91 632.904 117.557 632.904 119.589C632.904 121.621 631.256 123.269 629.224 123.269C627.192 123.269 625.545 121.621 625.545 119.589C625.545 117.557 627.192 115.91 629.224 115.91Z" fill="var(--fill-0, #EC4B2D)"/>
<path d="M647.622 115.91C649.654 115.91 651.302 117.557 651.302 119.589C651.302 121.622 649.654 123.269 647.622 123.269C645.59 123.269 643.943 121.621 643.942 119.589C643.942 117.557 645.59 115.91 647.622 115.91Z" fill="var(--fill-0, #EC4B2D)"/>
<path d="M666.021 115.91C668.053 115.91 669.7 117.557 669.7 119.589C669.7 121.621 668.053 123.269 666.021 123.269C663.989 123.269 662.341 121.621 662.341 119.589C662.341 117.557 663.989 115.91 666.021 115.91Z" fill="var(--fill-0, #EC4B2D)"/>
<path d="M684.419 115.91C686.451 115.91 688.098 117.557 688.098 119.589C688.098 121.622 686.451 123.269 684.419 123.269C682.387 123.269 680.739 121.621 680.739 119.589C680.739 117.557 682.387 115.91 684.419 115.91Z" fill="var(--fill-0, #EC4B2D)"/>
<path d="M702.818 115.91C704.85 115.91 706.497 117.557 706.497 119.589C706.497 121.621 704.85 123.269 702.818 123.269C700.785 123.269 699.138 121.621 699.138 119.589C699.138 117.557 700.785 115.91 702.818 115.91Z" fill="var(--fill-0, #EC4B2D)"/>
<path d="M721.215 115.91C723.248 115.91 724.895 117.557 724.895 119.589C724.895 121.622 723.248 123.269 721.215 123.269C719.183 123.269 717.536 121.621 717.536 119.589C717.536 117.557 719.183 115.91 721.215 115.91Z" fill="var(--fill-0, #EC4B2D)"/>
<path d="M3.67954 99.3512C5.71176 99.3512 7.3591 100.999 7.3591 103.031C7.35902 105.063 5.71171 106.71 3.67954 106.71C1.64741 106.71 5.02821e-05 105.063 -3.05176e-05 103.031C-3.05176e-05 100.999 1.64736 99.3513 3.67954 99.3512Z" fill="var(--fill-0, #EC4B2D)"/>
<path d="M22.0784 99.3512C24.1104 99.3515 25.758 100.999 25.758 103.031C25.7579 105.063 24.1103 106.71 22.0784 106.71C20.0463 106.71 18.3989 105.063 18.3988 103.031C18.3988 100.999 20.0462 99.3513 22.0784 99.3512Z" fill="var(--fill-0, #EC4B2D)"/>
<path d="M40.4762 99.3512C42.5084 99.3512 44.1558 100.999 44.1558 103.031C44.1557 105.063 42.5084 106.71 40.4762 106.71C38.4441 106.71 36.7967 105.063 36.7967 103.031C36.7967 100.999 38.4441 99.3513 40.4762 99.3512Z" fill="var(--fill-0, #EC4B2D)"/>
<path d="M58.8751 99.3512C60.9071 99.3515 62.5546 100.999 62.5546 103.031C62.5546 105.063 60.907 106.71 58.8751 106.71C56.8429 106.71 55.1956 105.063 55.1955 103.031C55.1955 100.999 56.8429 99.3513 58.8751 99.3512Z" fill="var(--fill-0, #EC4B2D)"/>
<path d="M77.2729 99.3512C79.3051 99.3512 80.9525 100.999 80.9525 103.031C80.9524 105.063 79.3051 106.71 77.2729 106.71C75.2408 106.71 73.5934 105.063 73.5933 103.031C73.5933 100.999 75.2408 99.3513 77.2729 99.3512Z" fill="var(--fill-0, #EC4B2D)"/>
<path d="M95.6718 99.3512C97.7038 99.3515 99.3513 100.999 99.3513 103.031C99.3512 105.063 97.7038 106.71 95.6718 106.71C93.6396 106.71 91.9923 105.063 91.9922 103.031C91.9922 100.999 93.6396 99.3513 95.6718 99.3512Z" fill="var(--fill-0, #EC4B2D)"/>
<path d="M114.07 99.3512C116.102 99.3512 117.749 100.999 117.749 103.031C117.749 105.063 116.102 106.71 114.07 106.71C112.038 106.71 110.39 105.063 110.39 103.031C110.39 100.999 112.037 99.3514 114.07 99.3512Z" fill="var(--fill-0, #EC4B2D)"/>
<path d="M132.468 99.3512C134.501 99.3514 136.148 100.999 136.148 103.031C136.148 105.063 134.5 106.71 132.468 106.71C130.436 106.71 128.789 105.063 128.789 103.031C128.789 100.999 130.436 99.3513 132.468 99.3512Z" fill="var(--fill-0, #EC4B2D)"/>
<path d="M150.866 99.3512C152.899 99.3512 154.546 100.999 154.546 103.031C154.546 105.063 152.898 106.71 150.866 106.71C148.834 106.71 147.187 105.063 147.187 103.031C147.187 100.999 148.834 99.3514 150.866 99.3512Z" fill="var(--fill-0, #EC4B2D)"/>
<path d="M169.265 99.3512C171.297 99.3514 172.945 100.999 172.945 103.031C172.945 105.063 171.297 106.71 169.265 106.71C167.233 106.71 165.586 105.063 165.586 103.031C165.586 100.999 167.233 99.3513 169.265 99.3512Z" fill="var(--fill-0, #EC4B2D)"/>
<path d="M187.663 99.3512C189.695 99.3512 191.343 100.999 191.343 103.031C191.342 105.063 189.695 106.71 187.663 106.71C185.631 106.71 183.983 105.063 183.983 103.031C183.983 100.999 185.631 99.3514 187.663 99.3512Z" fill="var(--fill-0, #EC4B2D)"/>
<path d="M206.062 99.3512C208.094 99.3514 209.741 100.999 209.741 103.031C209.741 105.063 208.094 106.71 206.062 106.71C204.03 106.71 202.382 105.063 202.382 103.031C202.382 100.999 204.03 99.3513 206.062 99.3512Z" fill="var(--fill-0, #EC4B2D)"/>
<path d="M224.46 99.3512C226.492 99.3512 228.139 100.999 228.139 103.031C228.139 105.063 226.492 106.71 224.46 106.71C222.428 106.71 220.78 105.063 220.78 103.031C220.78 100.999 222.428 99.3514 224.46 99.3512Z" fill="var(--fill-0, #EC4B2D)"/>
<path d="M242.859 99.3512C244.891 99.3514 246.538 100.999 246.538 103.031C246.538 105.063 244.891 106.71 242.859 106.71C240.826 106.71 239.179 105.063 239.179 103.031C239.179 100.999 240.826 99.3513 242.859 99.3512Z" fill="var(--fill-0, #EC4B2D)"/>
<path d="M261.256 99.3512C263.289 99.3512 264.936 100.999 264.936 103.031C264.936 105.063 263.289 106.71 261.256 106.71C259.224 106.71 257.577 105.063 257.577 103.031C257.577 100.999 259.224 99.3515 261.256 99.3512Z" fill="var(--fill-0, #EC4B2D)"/>
<path d="M279.655 99.3512C281.687 99.3513 283.335 100.999 283.335 103.031C283.335 105.063 281.687 106.71 279.655 106.71C277.623 106.71 275.976 105.063 275.976 103.031C275.976 100.999 277.623 99.3513 279.655 99.3512Z" fill="var(--fill-0, #EC4B2D)"/>
<path d="M298.053 99.3512C300.085 99.3512 301.733 100.999 301.733 103.031C301.733 105.063 300.085 106.71 298.053 106.71C296.021 106.71 294.374 105.063 294.373 103.031C294.373 100.999 296.021 99.3515 298.053 99.3512Z" fill="var(--fill-0, #EC4B2D)"/>
<path d="M316.452 99.3512C318.484 99.3513 320.131 100.999 320.131 103.031C320.131 105.063 318.484 106.71 316.452 106.71C314.42 106.71 312.772 105.063 312.772 103.031C312.772 100.999 314.42 99.3513 316.452 99.3512Z" fill="var(--fill-0, #EC4B2D)"/>
<path d="M334.85 99.3512C336.882 99.3512 338.529 100.999 338.529 103.031C338.529 105.063 336.882 106.71 334.85 106.71C332.818 106.71 331.17 105.063 331.17 103.031C331.17 100.999 332.818 99.3515 334.85 99.3512Z" fill="var(--fill-0, #EC4B2D)"/>
<path d="M353.249 99.3512C355.281 99.3513 356.928 100.999 356.928 103.031C356.928 105.063 355.281 106.71 353.249 106.71C351.216 106.71 349.569 105.063 349.569 103.031C349.569 100.999 351.216 99.3513 353.249 99.3512Z" fill="var(--fill-0, #EC4B2D)"/>
<path d="M371.646 99.3512C373.679 99.3512 375.326 100.999 375.326 103.031C375.326 105.063 373.679 106.71 371.646 106.71C369.614 106.71 367.967 105.063 367.967 103.031C367.967 100.999 369.614 99.3515 371.646 99.3512Z" fill="var(--fill-0, #EC4B2D)"/>
<path d="M390.045 99.3512C392.077 99.3513 393.725 100.999 393.725 103.031C393.725 105.063 392.077 106.71 390.045 106.71C388.013 106.71 386.366 105.063 386.366 103.031C386.366 100.999 388.013 99.3513 390.045 99.3512Z" fill="var(--fill-0, #EC4B2D)"/>
<path d="M408.443 99.3512C410.475 99.3512 412.123 100.999 412.123 103.031C412.123 105.063 410.475 106.71 408.443 106.71C406.411 106.71 404.764 105.063 404.764 103.031C404.764 100.999 406.411 99.3515 408.443 99.3512Z" fill="var(--fill-0, #EC4B2D)"/>
<path d="M426.842 99.3512C428.874 99.3513 430.522 100.999 430.522 103.031C430.521 105.063 428.874 106.71 426.842 106.71C424.81 106.71 423.162 105.063 423.162 103.031C423.162 100.999 424.81 99.3513 426.842 99.3512Z" fill="var(--fill-0, #EC4B2D)"/>
<path d="M445.241 99.3512C447.273 99.3515 448.92 100.999 448.92 103.031C448.92 105.063 447.273 106.71 445.241 106.71C443.209 106.71 441.561 105.063 441.561 103.031C441.561 100.999 443.209 99.3513 445.241 99.3512Z" fill="var(--fill-0, #EC4B2D)"/>
<path d="M463.639 99.3512C465.671 99.3512 467.318 100.999 467.318 103.031C467.318 105.063 465.671 106.71 463.639 106.71C461.606 106.71 459.959 105.063 459.959 103.031C459.959 100.999 461.606 99.3513 463.639 99.3512Z" fill="var(--fill-0, #EC4B2D)"/>
<path d="M482.037 99.3512C484.069 99.3515 485.717 100.999 485.717 103.031C485.717 105.063 484.069 106.71 482.037 106.71C480.005 106.71 478.358 105.063 478.358 103.031C478.358 100.999 480.005 99.3513 482.037 99.3512Z" fill="var(--fill-0, #EC4B2D)"/>
<path d="M500.435 99.3512C502.468 99.3512 504.115 100.999 504.115 103.031C504.115 105.063 502.467 106.71 500.435 106.71C498.403 106.71 496.756 105.063 496.756 103.031C496.756 100.999 498.403 99.3513 500.435 99.3512Z" fill="var(--fill-0, #EC4B2D)"/>
<path d="M518.834 99.3512C520.866 99.3515 522.514 100.999 522.514 103.031C522.514 105.063 520.866 106.71 518.834 106.71C516.802 106.71 515.155 105.063 515.155 103.031C515.155 100.999 516.802 99.3513 518.834 99.3512Z" fill="var(--fill-0, #EC4B2D)"/>
<path d="M537.232 99.3512C539.264 99.3512 540.912 100.999 540.912 103.031C540.911 105.063 539.264 106.71 537.232 106.71C535.2 106.71 533.553 105.063 533.552 103.031C533.552 100.999 535.2 99.3513 537.232 99.3512Z" fill="var(--fill-0, #EC4B2D)"/>
<path d="M555.631 99.3512C557.663 99.3514 559.31 100.999 559.31 103.031C559.31 105.063 557.663 106.71 555.631 106.71C553.599 106.71 551.951 105.063 551.951 103.031C551.951 100.999 553.599 99.3513 555.631 99.3512Z" fill="var(--fill-0, #EC4B2D)"/>
<path d="M574.029 99.3512C576.061 99.3512 577.708 100.999 577.708 103.031C577.708 105.063 576.061 106.71 574.029 106.71C571.997 106.71 570.349 105.063 570.349 103.031C570.349 100.999 571.997 99.3514 574.029 99.3512Z" fill="var(--fill-0, #EC4B2D)"/>
<path d="M592.428 99.3512C594.46 99.3514 596.107 100.999 596.107 103.031C596.107 105.063 594.46 106.71 592.428 106.71C590.395 106.71 588.748 105.063 588.748 103.031C588.748 100.999 590.395 99.3513 592.428 99.3512Z" fill="var(--fill-0, #EC4B2D)"/>
<path d="M610.825 99.3512C612.858 99.3512 614.505 100.999 614.505 103.031C614.505 105.063 612.858 106.71 610.825 106.71C608.793 106.71 607.146 105.063 607.146 103.031C607.146 100.999 608.793 99.3514 610.825 99.3512Z" fill="var(--fill-0, #EC4B2D)"/>
<path d="M629.224 99.3512C631.256 99.3514 632.904 100.999 632.904 103.031C632.904 105.063 631.256 106.71 629.224 106.71C627.192 106.71 625.545 105.063 625.545 103.031C625.545 100.999 627.192 99.3513 629.224 99.3512Z" fill="var(--fill-0, #EC4B2D)"/>
<path d="M647.622 99.3512C649.654 99.3512 651.302 100.999 651.302 103.031C651.302 105.063 649.654 106.71 647.622 106.71C645.59 106.71 643.943 105.063 643.942 103.031C643.942 100.999 645.59 99.3514 647.622 99.3512Z" fill="var(--fill-0, #EC4B2D)"/>
<path d="M666.021 99.3512C668.053 99.3514 669.7 100.999 669.7 103.031C669.7 105.063 668.053 106.71 666.021 106.71C663.989 106.71 662.341 105.063 662.341 103.031C662.341 100.999 663.989 99.3513 666.021 99.3512Z" fill="var(--fill-0, #EC4B2D)"/>
<path d="M684.419 99.3512C686.451 99.3512 688.098 100.999 688.098 103.031C688.098 105.063 686.451 106.71 684.419 106.71C682.387 106.71 680.739 105.063 680.739 103.031C680.739 100.999 682.387 99.3514 684.419 99.3512Z" fill="var(--fill-0, #EC4B2D)"/>
<path d="M702.818 99.3512C704.85 99.3514 706.497 100.999 706.497 103.031C706.497 105.063 704.85 106.71 702.818 106.71C700.785 106.71 699.138 105.063 699.138 103.031C699.138 100.999 700.785 99.3513 702.818 99.3512Z" fill="var(--fill-0, #EC4B2D)"/>
<path d="M721.215 99.3512C723.248 99.3512 724.895 100.999 724.895 103.031C724.895 105.063 723.248 106.71 721.215 106.71C719.183 106.71 717.536 105.063 717.536 103.031C717.536 100.999 719.183 99.3515 721.215 99.3512Z" fill="var(--fill-0, #EC4B2D)"/>
<path d="M3.67954 82.7927C5.71176 82.7927 7.3591 84.44 7.3591 86.4722C7.35902 88.5044 5.71171 90.1518 3.67954 90.1518C1.64741 90.1518 5.02821e-05 88.5044 -3.05176e-05 86.4722C-3.05176e-05 84.4401 1.64736 82.7927 3.67954 82.7927Z" fill="var(--fill-0, #EC4B2D)"/>
<path d="M22.0784 82.7927C24.1104 82.7929 25.758 84.4402 25.758 86.4722C25.7579 88.5042 24.1103 90.1515 22.0784 90.1518C20.0463 90.1518 18.3989 88.5044 18.3988 86.4722C18.3988 84.4401 20.0462 82.7927 22.0784 82.7927Z" fill="var(--fill-0, #EC4B2D)"/>
<path d="M40.4762 82.7927C42.5084 82.7927 44.1558 84.44 44.1558 86.4722C44.1557 88.5044 42.5084 90.1518 40.4762 90.1518C38.4441 90.1517 36.7967 88.5044 36.7967 86.4722C36.7967 84.4401 38.4441 82.7928 40.4762 82.7927Z" fill="var(--fill-0, #EC4B2D)"/>
<path d="M58.8751 82.7927C60.9071 82.7929 62.5546 84.4402 62.5546 86.4722C62.5546 88.5043 60.907 90.1516 58.8751 90.1518C56.8429 90.1518 55.1956 88.5044 55.1955 86.4722C55.1955 84.4401 56.8429 82.7927 58.8751 82.7927Z" fill="var(--fill-0, #EC4B2D)"/>
<path d="M77.2729 82.7927C79.3051 82.7927 80.9525 84.44 80.9525 86.4722C80.9524 88.5044 79.3051 90.1518 77.2729 90.1518C75.2408 90.1517 73.5934 88.5043 73.5933 86.4722C73.5933 84.4401 75.2408 82.7928 77.2729 82.7927Z" fill="var(--fill-0, #EC4B2D)"/>
<path d="M95.6718 82.7927C97.7038 82.7929 99.3513 84.4402 99.3513 86.4722C99.3512 88.5043 97.7038 90.1516 95.6718 90.1518C93.6396 90.1518 91.9923 88.5044 91.9922 86.4722C91.9922 84.4401 93.6396 82.7927 95.6718 82.7927Z" fill="var(--fill-0, #EC4B2D)"/>
<path d="M114.07 82.7927C116.102 82.7927 117.749 84.44 117.749 86.4722C117.749 88.5044 116.102 90.1518 114.07 90.1518C112.038 90.1517 110.39 88.5043 110.39 86.4722C110.39 84.4401 112.037 82.7928 114.07 82.7927Z" fill="var(--fill-0, #EC4B2D)"/>
<path d="M132.468 82.7927C134.501 82.7929 136.148 84.4401 136.148 86.4722C136.148 88.5043 134.5 90.1516 132.468 90.1518C130.436 90.1518 128.789 88.5044 128.789 86.4722C128.789 84.4401 130.436 82.7927 132.468 82.7927Z" fill="var(--fill-0, #EC4B2D)"/>
<path d="M150.866 82.7927C152.899 82.7927 154.546 84.44 154.546 86.4722C154.546 88.5044 152.898 90.1518 150.866 90.1518C148.834 90.1517 147.187 88.5043 147.187 86.4722C147.187 84.4401 148.834 82.7928 150.866 82.7927Z" fill="var(--fill-0, #EC4B2D)"/>
<path d="M169.265 82.7927C171.297 82.7929 172.945 84.4401 172.945 86.4722C172.945 88.5043 171.297 90.1516 169.265 90.1518C167.233 90.1518 165.586 88.5044 165.586 86.4722C165.586 84.4401 167.233 82.7927 169.265 82.7927Z" fill="var(--fill-0, #EC4B2D)"/>
<path d="M187.663 82.7927C189.695 82.7927 191.343 84.44 191.343 86.4722C191.342 88.5044 189.695 90.1518 187.663 90.1518C185.631 90.1516 183.983 88.5043 183.983 86.4722C183.983 84.4401 185.631 82.7928 187.663 82.7927Z" fill="var(--fill-0, #EC4B2D)"/>
<path d="M206.062 82.7927C208.094 82.7928 209.741 84.4401 209.741 86.4722C209.741 88.5043 208.094 90.1517 206.062 90.1518C204.03 90.1518 202.382 88.5044 202.382 86.4722C202.382 84.4401 204.03 82.7927 206.062 82.7927Z" fill="var(--fill-0, #EC4B2D)"/>
<path d="M224.46 82.7927C226.492 82.7927 228.139 84.44 228.139 86.4722C228.139 88.5044 226.492 90.1518 224.46 90.1518C222.428 90.1516 220.78 88.5043 220.78 86.4722C220.78 84.4401 222.428 82.7929 224.46 82.7927Z" fill="var(--fill-0, #EC4B2D)"/>
<path d="M242.859 82.7927C244.891 82.7928 246.538 84.4401 246.538 86.4722C246.538 88.5043 244.891 90.1517 242.859 90.1518C240.826 90.1518 239.179 88.5044 239.179 86.4722C239.179 84.4401 240.826 82.7927 242.859 82.7927Z" fill="var(--fill-0, #EC4B2D)"/>
<path d="M261.256 82.7927C263.289 82.7927 264.936 84.44 264.936 86.4722C264.936 88.5044 263.289 90.1518 261.256 90.1518C259.224 90.1516 257.577 88.5043 257.577 86.4722C257.577 84.4401 259.224 82.7929 261.256 82.7927Z" fill="var(--fill-0, #EC4B2D)"/>
<path d="M279.655 82.7927C281.687 82.7928 283.335 84.4401 283.335 86.4722C283.335 88.5043 281.687 90.1517 279.655 90.1518C277.623 90.1518 275.976 88.5044 275.976 86.4722C275.976 84.4401 277.623 82.7927 279.655 82.7927Z" fill="var(--fill-0, #EC4B2D)"/>
<path d="M298.053 82.7927C300.085 82.7927 301.733 84.44 301.733 86.4722C301.733 88.5044 300.085 90.1518 298.053 90.1518C296.021 90.1516 294.374 88.5043 294.373 86.4722C294.373 84.4402 296.021 82.7929 298.053 82.7927Z" fill="var(--fill-0, #EC4B2D)"/>
<path d="M316.452 82.7927C318.484 82.7928 320.131 84.4401 320.131 86.4722C320.131 88.5043 318.484 90.1517 316.452 90.1518C314.42 90.1518 312.772 88.5044 312.772 86.4722C312.772 84.4401 314.42 82.7927 316.452 82.7927Z" fill="var(--fill-0, #EC4B2D)"/>
<path d="M334.85 82.7927C336.882 82.7927 338.529 84.44 338.529 86.4722C338.529 88.5044 336.882 90.1518 334.85 90.1518C332.818 90.1515 331.17 88.5042 331.17 86.4722C331.17 84.4402 332.818 82.7929 334.85 82.7927Z" fill="var(--fill-0, #EC4B2D)"/>
<path d="M353.249 82.7927C355.281 82.7927 356.928 84.4401 356.928 86.4722C356.928 88.5044 355.281 90.1517 353.249 90.1518C351.216 90.1518 349.569 88.5044 349.569 86.4722C349.569 84.4401 351.216 82.7927 353.249 82.7927Z" fill="var(--fill-0, #EC4B2D)"/>
<path d="M371.646 82.7927C373.679 82.7927 375.326 84.44 375.326 86.4722C375.326 88.5044 373.679 90.1518 371.646 90.1518C369.614 90.1515 367.967 88.5042 367.967 86.4722C367.967 84.4402 369.614 82.793 371.646 82.7927Z" fill="var(--fill-0, #EC4B2D)"/>
<path d="M390.045 82.7927C392.077 82.7927 393.725 84.44 393.725 86.4722C393.725 88.5044 392.077 90.1518 390.045 90.1518C388.013 90.1518 386.366 88.5044 386.366 86.4722C386.366 84.4401 388.013 82.7927 390.045 82.7927Z" fill="var(--fill-0, #EC4B2D)"/>
<path d="M408.443 82.7927C410.475 82.7927 412.123 84.44 412.123 86.4722C412.123 88.5044 410.475 90.1518 408.443 90.1518C406.411 90.1515 404.764 88.5042 404.764 86.4722C404.764 84.4402 406.411 82.793 408.443 82.7927Z" fill="var(--fill-0, #EC4B2D)"/>
<path d="M426.842 82.7927C428.874 82.7927 430.522 84.44 430.522 86.4722C430.521 88.5044 428.874 90.1518 426.842 90.1518C424.81 90.1518 423.162 88.5044 423.162 86.4722C423.162 84.4401 424.81 82.7927 426.842 82.7927Z" fill="var(--fill-0, #EC4B2D)"/>
<path d="M445.241 82.7927C447.273 82.793 448.92 84.4402 448.92 86.4722C448.92 88.5042 447.273 90.1515 445.241 90.1518C443.209 90.1518 441.561 88.5044 441.561 86.4722C441.561 84.4401 443.209 82.7927 445.241 82.7927Z" fill="var(--fill-0, #EC4B2D)"/>
<path d="M463.639 82.7927C465.671 82.7927 467.318 84.44 467.318 86.4722C467.318 88.5044 465.671 90.1518 463.639 90.1518C461.606 90.1518 459.959 88.5044 459.959 86.4722C459.959 84.4401 461.606 82.7927 463.639 82.7927Z" fill="var(--fill-0, #EC4B2D)"/>
<path d="M482.037 82.7927C484.069 82.7929 485.717 84.4402 485.717 86.4722C485.717 88.5042 484.069 90.1516 482.037 90.1518C480.005 90.1518 478.358 88.5044 478.358 86.4722C478.358 84.4401 480.005 82.7927 482.037 82.7927Z" fill="var(--fill-0, #EC4B2D)"/>
<path d="M500.435 82.7927C502.468 82.7927 504.115 84.44 504.115 86.4722C504.115 88.5044 502.467 90.1518 500.435 90.1518C498.403 90.1517 496.756 88.5043 496.756 86.4722C496.756 84.4401 498.403 82.7928 500.435 82.7927Z" fill="var(--fill-0, #EC4B2D)"/>
<path d="M518.834 82.7927C520.866 82.7929 522.514 84.4402 522.514 86.4722C522.514 88.5043 520.866 90.1516 518.834 90.1518C516.802 90.1518 515.155 88.5044 515.155 86.4722C515.155 84.4401 516.802 82.7927 518.834 82.7927Z" fill="var(--fill-0, #EC4B2D)"/>
<path d="M537.232 82.7927C539.264 82.7927 540.912 84.44 540.912 86.4722C540.911 88.5044 539.264 90.1518 537.232 90.1518C535.2 90.1517 533.553 88.5043 533.552 86.4722C533.552 84.4401 535.2 82.7928 537.232 82.7927Z" fill="var(--fill-0, #EC4B2D)"/>
<path d="M555.631 82.7927C557.663 82.7929 559.31 84.4401 559.31 86.4722C559.31 88.5043 557.663 90.1516 555.631 90.1518C553.599 90.1518 551.951 88.5044 551.951 86.4722C551.951 84.4401 553.599 82.7927 555.631 82.7927Z" fill="var(--fill-0, #EC4B2D)"/>
<path d="M574.029 82.7927C576.061 82.7927 577.708 84.44 577.708 86.4722C577.708 88.5044 576.061 90.1518 574.029 90.1518C571.997 90.1517 570.349 88.5043 570.349 86.4722C570.349 84.4401 571.997 82.7928 574.029 82.7927Z" fill="var(--fill-0, #EC4B2D)"/>
<path d="M592.428 82.7927C594.46 82.7929 596.107 84.4401 596.107 86.4722C596.107 88.5043 594.46 90.1516 592.428 90.1518C590.395 90.1518 588.748 88.5044 588.748 86.4722C588.748 84.4401 590.395 82.7927 592.428 82.7927Z" fill="var(--fill-0, #EC4B2D)"/>
<path d="M610.825 82.7927C612.858 82.7927 614.505 84.44 614.505 86.4722C614.505 88.5044 612.858 90.1518 610.825 90.1518C608.793 90.1516 607.146 88.5043 607.146 86.4722C607.146 84.4401 608.793 82.7928 610.825 82.7927Z" fill="var(--fill-0, #EC4B2D)"/>
<path d="M629.224 82.7927C631.256 82.7929 632.904 84.4401 632.904 86.4722C632.904 88.5043 631.256 90.1516 629.224 90.1518C627.192 90.1518 625.545 88.5044 625.545 86.4722C625.545 84.4401 627.192 82.7927 629.224 82.7927Z" fill="var(--fill-0, #EC4B2D)"/>
<path d="M647.622 82.7927C649.654 82.7927 651.302 84.44 651.302 86.4722C651.302 88.5044 649.654 90.1518 647.622 90.1518C645.59 90.1516 643.943 88.5043 643.942 86.4722C643.942 84.4401 645.59 82.7928 647.622 82.7927Z" fill="var(--fill-0, #EC4B2D)"/>
<path d="M666.021 82.7927C668.053 82.7928 669.7 84.4401 669.7 86.4722C669.7 88.5043 668.053 90.1517 666.021 90.1518C663.989 90.1518 662.341 88.5044 662.341 86.4722C662.341 84.4401 663.989 82.7927 666.021 82.7927Z" fill="var(--fill-0, #EC4B2D)"/>
<path d="M684.419 82.7927C686.451 82.7927 688.098 84.44 688.098 86.4722C688.098 88.5044 686.451 90.1518 684.419 90.1518C682.387 90.1516 680.739 88.5043 680.739 86.4722C680.739 84.4401 682.387 82.7929 684.419 82.7927Z" fill="var(--fill-0, #EC4B2D)"/>
<path d="M702.818 82.7927C704.85 82.7928 706.497 84.4401 706.497 86.4722C706.497 88.5043 704.85 90.1517 702.818 90.1518C700.785 90.1518 699.138 88.5044 699.138 86.4722C699.138 84.4401 700.785 82.7927 702.818 82.7927Z" fill="var(--fill-0, #EC4B2D)"/>
<path d="M721.215 82.7927C723.248 82.7927 724.895 84.44 724.895 86.4722C724.895 88.5044 723.248 90.1518 721.215 90.1518C719.183 90.1516 717.536 88.5043 717.536 86.4722C717.536 84.4402 719.183 82.7929 721.215 82.7927Z" fill="var(--fill-0, #EC4B2D)"/>
<path d="M3.67954 66.2341C5.71176 66.2341 7.3591 67.8815 7.3591 69.9137C7.35902 71.9458 5.71171 73.5933 3.67954 73.5933C1.64741 73.5932 5.02821e-05 71.9458 -3.05176e-05 69.9137C-3.05176e-05 67.8815 1.64736 66.2342 3.67954 66.2341Z" fill="var(--fill-0, #EC4B2D)"/>
<path d="M22.0784 66.2341C24.1104 66.2344 25.758 67.8816 25.758 69.9137C25.7579 71.9457 24.1103 73.593 22.0784 73.5933C20.0463 73.5932 18.3989 71.9458 18.3988 69.9137C18.3988 67.8815 20.0462 66.2342 22.0784 66.2341Z" fill="var(--fill-0, #EC4B2D)"/>
<path d="M40.4762 66.2341C42.5084 66.2341 44.1558 67.8815 44.1558 69.9137C44.1557 71.9458 42.5084 73.5933 40.4762 73.5933C38.4441 73.5932 36.7967 71.9458 36.7967 69.9137C36.7967 67.8815 38.4441 66.2342 40.4762 66.2341Z" fill="var(--fill-0, #EC4B2D)"/>
<path d="M58.8751 66.2341C60.9071 66.2344 62.5546 67.8816 62.5546 69.9137C62.5546 71.9457 60.907 73.593 58.8751 73.5933C56.8429 73.5932 55.1956 71.9458 55.1955 69.9137C55.1955 67.8815 56.8429 66.2342 58.8751 66.2341Z" fill="var(--fill-0, #EC4B2D)"/>
<path d="M77.2729 66.2341C79.3051 66.2341 80.9525 67.8815 80.9525 69.9137C80.9524 71.9458 79.3051 73.5933 77.2729 73.5933C75.2408 73.5931 73.5934 71.9458 73.5933 69.9137C73.5933 67.8815 75.2408 66.2342 77.2729 66.2341Z" fill="var(--fill-0, #EC4B2D)"/>
<path d="M95.6718 66.2341C97.7038 66.2343 99.3513 67.8816 99.3513 69.9137C99.3512 71.9457 97.7038 73.593 95.6718 73.5933C93.6396 73.5932 91.9923 71.9458 91.9922 69.9137C91.9922 67.8815 93.6396 66.2342 95.6718 66.2341Z" fill="var(--fill-0, #EC4B2D)"/>
<path d="M114.07 66.2341C116.102 66.2341 117.749 67.8815 117.749 69.9137C117.749 71.9458 116.102 73.5933 114.07 73.5933C112.038 73.5931 110.39 71.9458 110.39 69.9137C110.39 67.8815 112.037 66.2342 114.07 66.2341Z" fill="var(--fill-0, #EC4B2D)"/>
<path d="M132.468 66.2341C134.501 66.2343 136.148 67.8816 136.148 69.9137C136.148 71.9457 134.5 73.5931 132.468 73.5933C130.436 73.5932 128.789 71.9458 128.789 69.9137C128.789 67.8815 130.436 66.2342 132.468 66.2341Z" fill="var(--fill-0, #EC4B2D)"/>
<path d="M150.866 66.2341C152.899 66.2341 154.546 67.8815 154.546 69.9137C154.546 71.9458 152.898 73.5933 150.866 73.5933C148.834 73.5931 147.187 71.9458 147.187 69.9137C147.187 67.8815 148.834 66.2343 150.866 66.2341Z" fill="var(--fill-0, #EC4B2D)"/>
<path d="M169.265 66.2341C171.297 66.2343 172.945 67.8816 172.945 69.9137C172.945 71.9457 171.297 73.5931 169.265 73.5933C167.233 73.5932 165.586 71.9458 165.586 69.9137C165.586 67.8815 167.233 66.2342 169.265 66.2341Z" fill="var(--fill-0, #EC4B2D)"/>
<path d="M187.663 66.2341C189.695 66.2341 191.343 67.8815 191.343 69.9137C191.342 71.9458 189.695 73.5933 187.663 73.5933C185.631 73.5931 183.983 71.9457 183.983 69.9137C183.983 67.8816 185.631 66.2343 187.663 66.2341Z" fill="var(--fill-0, #EC4B2D)"/>
<path d="M206.062 66.2341C208.094 66.2343 209.741 67.8816 209.741 69.9137C209.741 71.9457 208.094 73.5931 206.062 73.5933C204.03 73.5932 202.382 71.9458 202.382 69.9137C202.382 67.8815 204.03 66.2342 206.062 66.2341Z" fill="var(--fill-0, #EC4B2D)"/>
<path d="M224.46 66.2341C226.492 66.2341 228.139 67.8815 228.139 69.9137C228.139 71.9458 226.492 73.5933 224.46 73.5933C222.428 73.5931 220.78 71.9457 220.78 69.9137C220.78 67.8816 222.428 66.2343 224.46 66.2341Z" fill="var(--fill-0, #EC4B2D)"/>
<path d="M242.859 66.2341C244.891 66.2342 246.538 67.8815 246.538 69.9137C246.538 71.9458 244.891 73.5931 242.859 73.5933C240.826 73.5932 239.179 71.9458 239.179 69.9137C239.179 67.8815 240.826 66.2342 242.859 66.2341Z" fill="var(--fill-0, #EC4B2D)"/>
<path d="M261.256 66.2341C263.289 66.2341 264.936 67.8815 264.936 69.9137C264.936 71.9458 263.289 73.5933 261.256 73.5933C259.224 73.593 257.577 71.9457 257.577 69.9137C257.577 67.8816 259.224 66.2343 261.256 66.2341Z" fill="var(--fill-0, #EC4B2D)"/>
<path d="M279.655 66.2341C281.687 66.2342 283.335 67.8815 283.335 69.9137C283.335 71.9458 281.687 73.5931 279.655 73.5933C277.623 73.5932 275.976 71.9458 275.976 69.9137C275.976 67.8815 277.623 66.2342 279.655 66.2341Z" fill="var(--fill-0, #EC4B2D)"/>
<path d="M298.053 66.2341C300.085 66.2341 301.733 67.8815 301.733 69.9137C301.733 71.9458 300.085 73.5933 298.053 73.5933C296.021 73.593 294.374 71.9457 294.373 69.9137C294.373 67.8816 296.021 66.2343 298.053 66.2341Z" fill="var(--fill-0, #EC4B2D)"/>
<path d="M316.452 66.2341C318.484 66.2342 320.131 67.8815 320.131 69.9137C320.131 71.9458 318.484 73.5932 316.452 73.5933C314.42 73.5932 312.772 71.9458 312.772 69.9137C312.772 67.8815 314.42 66.2342 316.452 66.2341Z" fill="var(--fill-0, #EC4B2D)"/>
<path d="M334.85 66.2341C336.882 66.2341 338.529 67.8815 338.529 69.9137C338.529 71.9458 336.882 73.5933 334.85 73.5933C332.818 73.593 331.17 71.9457 331.17 69.9137C331.17 67.8816 332.818 66.2344 334.85 66.2341Z" fill="var(--fill-0, #EC4B2D)"/>
<path d="M353.249 66.2341C355.281 66.2342 356.928 67.8815 356.928 69.9137C356.928 71.9458 355.281 73.5932 353.249 73.5933C351.216 73.5932 349.569 71.9458 349.569 69.9137C349.569 67.8815 351.216 66.2342 353.249 66.2341Z" fill="var(--fill-0, #EC4B2D)"/>
<path d="M371.646 66.2341C373.679 66.2341 375.326 67.8815 375.326 69.9137C375.326 71.9458 373.679 73.5933 371.646 73.5933C369.614 73.593 367.967 71.9457 367.967 69.9137C367.967 67.8816 369.614 66.2344 371.646 66.2341Z" fill="var(--fill-0, #EC4B2D)"/>
<path d="M390.045 66.2341C392.077 66.2342 393.725 67.8815 393.725 69.9137C393.725 71.9458 392.077 73.5932 390.045 73.5933C388.013 73.5932 386.366 71.9458 386.366 69.9137C386.366 67.8815 388.013 66.2342 390.045 66.2341Z" fill="var(--fill-0, #EC4B2D)"/>
<path d="M408.443 66.2341C410.475 66.2341 412.123 67.8815 412.123 69.9137C412.123 71.9458 410.475 73.5933 408.443 73.5933C406.411 73.593 404.764 71.9457 404.764 69.9137C404.764 67.8816 406.411 66.2344 408.443 66.2341Z" fill="var(--fill-0, #EC4B2D)"/>
<path d="M426.842 66.2341C428.874 66.2341 430.522 67.8815 430.522 69.9137C430.521 71.9458 428.874 73.5932 426.842 73.5933C424.81 73.5932 423.162 71.9458 423.162 69.9137C423.162 67.8815 424.81 66.2342 426.842 66.2341Z" fill="var(--fill-0, #EC4B2D)"/>
<path d="M445.241 66.2341C447.273 66.2344 448.92 67.8816 448.92 69.9137C448.92 71.9457 447.273 73.593 445.241 73.5933C443.209 73.5932 441.561 71.9458 441.561 69.9137C441.561 67.8815 443.209 66.2342 445.241 66.2341Z" fill="var(--fill-0, #EC4B2D)"/>
<path d="M463.639 66.2341C465.671 66.2341 467.318 67.8815 467.318 69.9137C467.318 71.9458 465.671 73.5933 463.639 73.5933C461.606 73.5932 459.959 71.9458 459.959 69.9137C459.959 67.8815 461.606 66.2342 463.639 66.2341Z" fill="var(--fill-0, #EC4B2D)"/>
<path d="M482.037 66.2341C484.069 66.2344 485.717 67.8816 485.717 69.9137C485.717 71.9457 484.069 73.593 482.037 73.5933C480.005 73.5932 478.358 71.9458 478.358 69.9137C478.358 67.8815 480.005 66.2342 482.037 66.2341Z" fill="var(--fill-0, #EC4B2D)"/>
<path d="M500.435 66.2341C502.468 66.2341 504.115 67.8815 504.115 69.9137C504.115 71.9458 502.467 73.5933 500.435 73.5933C498.403 73.5932 496.756 71.9458 496.756 69.9137C496.756 67.8815 498.403 66.2342 500.435 66.2341Z" fill="var(--fill-0, #EC4B2D)"/>
<path d="M518.834 66.2341C520.866 66.2344 522.514 67.8816 522.514 69.9137C522.514 71.9457 520.866 73.593 518.834 73.5933C516.802 73.5932 515.155 71.9458 515.155 69.9137C515.155 67.8815 516.802 66.2342 518.834 66.2341Z" fill="var(--fill-0, #EC4B2D)"/>
<path d="M537.232 66.2341C539.264 66.2341 540.912 67.8815 540.912 69.9137C540.911 71.9458 539.264 73.5933 537.232 73.5933C535.2 73.5931 533.553 71.9458 533.552 69.9137C533.552 67.8815 535.2 66.2342 537.232 66.2341Z" fill="var(--fill-0, #EC4B2D)"/>
<path d="M555.631 66.2341C557.663 66.2343 559.31 67.8816 559.31 69.9137C559.31 71.9457 557.663 73.593 555.631 73.5933C553.599 73.5932 551.951 71.9458 551.951 69.9137C551.951 67.8815 553.599 66.2342 555.631 66.2341Z" fill="var(--fill-0, #EC4B2D)"/>
<path d="M574.029 66.2341C576.061 66.2341 577.708 67.8815 577.708 69.9137C577.708 71.9458 576.061 73.5933 574.029 73.5933C571.997 73.5931 570.349 71.9458 570.349 69.9137C570.349 67.8815 571.997 66.2342 574.029 66.2341Z" fill="var(--fill-0, #EC4B2D)"/>
<path d="M592.428 66.2341C594.46 66.2343 596.107 67.8816 596.107 69.9137C596.107 71.9457 594.46 73.593 592.428 73.5933C590.395 73.5932 588.748 71.9458 588.748 69.9137C588.748 67.8815 590.395 66.2342 592.428 66.2341Z" fill="var(--fill-0, #EC4B2D)"/>
<path d="M610.825 66.2341C612.858 66.2341 614.505 67.8815 614.505 69.9137C614.505 71.9458 612.858 73.5933 610.825 73.5933C608.793 73.5931 607.146 71.9457 607.146 69.9137C607.146 67.8816 608.793 66.2343 610.825 66.2341Z" fill="var(--fill-0, #EC4B2D)"/>
<path d="M629.224 66.2341C631.256 66.2343 632.904 67.8816 632.904 69.9137C632.904 71.9457 631.256 73.5931 629.224 73.5933C627.192 73.5932 625.545 71.9458 625.545 69.9137C625.545 67.8815 627.192 66.2342 629.224 66.2341Z" fill="var(--fill-0, #EC4B2D)"/>
<path d="M647.622 66.2341C649.654 66.2341 651.302 67.8815 651.302 69.9137C651.302 71.9458 649.654 73.5933 647.622 73.5933C645.59 73.5931 643.943 71.9457 643.942 69.9137C643.942 67.8816 645.59 66.2343 647.622 66.2341Z" fill="var(--fill-0, #EC4B2D)"/>
<path d="M666.021 66.2341C668.053 66.2343 669.7 67.8815 669.7 69.9137C669.7 71.9458 668.053 73.5931 666.021 73.5933C663.989 73.5932 662.341 71.9458 662.341 69.9137C662.341 67.8815 663.989 66.2342 666.021 66.2341Z" fill="var(--fill-0, #EC4B2D)"/>
<path d="M684.419 66.2341C686.451 66.2341 688.098 67.8815 688.098 69.9137C688.098 71.9458 686.451 73.5933 684.419 73.5933C682.387 73.5931 680.739 71.9457 680.739 69.9137C680.739 67.8816 682.387 66.2343 684.419 66.2341Z" fill="var(--fill-0, #EC4B2D)"/>
<path d="M702.818 66.2341C704.85 66.2343 706.497 67.8815 706.497 69.9137C706.497 71.9458 704.85 73.5931 702.818 73.5933C700.785 73.5932 699.138 71.9458 699.138 69.9137C699.138 67.8815 700.785 66.2342 702.818 66.2341Z" fill="var(--fill-0, #EC4B2D)"/>
<path d="M721.215 66.2341C723.248 66.2341 724.895 67.8815 724.895 69.9137C724.895 71.9458 723.248 73.5933 721.215 73.5933C719.183 73.593 717.536 71.9457 717.536 69.9137C717.536 67.8816 719.183 66.2343 721.215 66.2341Z" fill="var(--fill-0, #EC4B2D)"/>
<path d="M3.67954 49.6756C5.71176 49.6756 7.3591 51.3229 7.3591 53.3551C7.35902 55.3873 5.71171 57.0347 3.67954 57.0347C1.64741 57.0346 5.02821e-05 55.3872 -3.05176e-05 53.3551C-3.05176e-05 51.3229 1.64736 49.6756 3.67954 49.6756Z" fill="var(--fill-0, #EC4B2D)"/>
<path d="M22.0784 49.6756C24.1104 49.6758 25.758 51.3231 25.758 53.3551C25.7579 55.3871 24.1103 57.0344 22.0784 57.0347C20.0463 57.0346 18.3989 55.3872 18.3988 53.3551C18.3988 51.3229 20.0462 49.6756 22.0784 49.6756Z" fill="var(--fill-0, #EC4B2D)"/>
<path d="M40.4762 49.6756C42.5084 49.6756 44.1558 51.3229 44.1558 53.3551C44.1557 55.3873 42.5084 57.0347 40.4762 57.0347C38.4441 57.0346 36.7967 55.3872 36.7967 53.3551C36.7967 51.3229 38.4441 49.6756 40.4762 49.6756Z" fill="var(--fill-0, #EC4B2D)"/>
<path d="M58.8751 49.6756C60.9071 49.6758 62.5546 51.323 62.5546 53.3551C62.5546 55.3871 60.907 57.0344 58.8751 57.0347C56.8429 57.0346 55.1956 55.3872 55.1955 53.3551C55.1955 51.3229 56.8429 49.6756 58.8751 49.6756Z" fill="var(--fill-0, #EC4B2D)"/>
<path d="M77.2729 49.6756C79.3051 49.6756 80.9525 51.3229 80.9525 53.3551C80.9524 55.3873 79.3051 57.0347 77.2729 57.0347C75.2408 57.0346 73.5934 55.3872 73.5933 53.3551C73.5933 51.323 75.2408 49.6757 77.2729 49.6756Z" fill="var(--fill-0, #EC4B2D)"/>
<path d="M95.6718 49.6756C97.7038 49.6758 99.3513 51.323 99.3513 53.3551C99.3512 55.3871 97.7038 57.0345 95.6718 57.0347C93.6396 57.0346 91.9923 55.3872 91.9922 53.3551C91.9922 51.3229 93.6396 49.6756 95.6718 49.6756Z" fill="var(--fill-0, #EC4B2D)"/>
<path d="M114.07 49.6756C116.102 49.6756 117.749 51.3229 117.749 53.3551C117.749 55.3873 116.102 57.0347 114.07 57.0347C112.038 57.0346 110.39 55.3872 110.39 53.3551C110.39 51.323 112.037 49.6757 114.07 49.6756Z" fill="var(--fill-0, #EC4B2D)"/>
<path d="M132.468 49.6756C134.501 49.6758 136.148 51.323 136.148 53.3551C136.148 55.3872 134.5 57.0345 132.468 57.0347C130.436 57.0346 128.789 55.3872 128.789 53.3551C128.789 51.3229 130.436 49.6756 132.468 49.6756Z" fill="var(--fill-0, #EC4B2D)"/>
<path d="M150.866 49.6756C152.899 49.6756 154.546 51.3229 154.546 53.3551C154.546 55.3873 152.898 57.0347 150.866 57.0347C148.834 57.0345 147.187 55.3872 147.187 53.3551C147.187 51.323 148.834 49.6757 150.866 49.6756Z" fill="var(--fill-0, #EC4B2D)"/>
<path d="M169.265 49.6756C171.297 49.6757 172.945 51.323 172.945 53.3551C172.945 55.3872 171.297 57.0345 169.265 57.0347C167.233 57.0346 165.586 55.3872 165.586 53.3551C165.586 51.3229 167.233 49.6756 169.265 49.6756Z" fill="var(--fill-0, #EC4B2D)"/>
<path d="M187.663 49.6756C189.695 49.6756 191.343 51.3229 191.343 53.3551C191.342 55.3873 189.695 57.0347 187.663 57.0347C185.631 57.0345 183.983 55.3872 183.983 53.3551C183.983 51.323 185.631 49.6757 187.663 49.6756Z" fill="var(--fill-0, #EC4B2D)"/>
<path d="M206.062 49.6756C208.094 49.6757 209.741 51.323 209.741 53.3551C209.741 55.3872 208.094 57.0345 206.062 57.0347C204.03 57.0346 202.382 55.3872 202.382 53.3551C202.382 51.3229 204.03 49.6756 206.062 49.6756Z" fill="var(--fill-0, #EC4B2D)"/>
<path d="M224.46 49.6756C226.492 49.6756 228.139 51.3229 228.139 53.3551C228.139 55.3873 226.492 57.0347 224.46 57.0347C222.428 57.0345 220.78 55.3872 220.78 53.3551C220.78 51.323 222.428 49.6758 224.46 49.6756Z" fill="var(--fill-0, #EC4B2D)"/>
<path d="M242.859 49.6756C244.891 49.6757 246.538 51.323 246.538 53.3551C246.538 55.3872 244.891 57.0346 242.859 57.0347C240.826 57.0346 239.179 55.3872 239.179 53.3551C239.179 51.3229 240.826 49.6756 242.859 49.6756Z" fill="var(--fill-0, #EC4B2D)"/>
<path d="M261.256 49.6756C263.289 49.6756 264.936 51.3229 264.936 53.3551C264.936 55.3873 263.289 57.0347 261.256 57.0347C259.224 57.0345 257.577 55.3872 257.577 53.3551C257.577 51.323 259.224 49.6758 261.256 49.6756Z" fill="var(--fill-0, #EC4B2D)"/>
<path d="M279.655 49.6756C281.687 49.6757 283.335 51.323 283.335 53.3551C283.335 55.3872 281.687 57.0346 279.655 57.0347C277.623 57.0346 275.976 55.3872 275.976 53.3551C275.976 51.3229 277.623 49.6756 279.655 49.6756Z" fill="var(--fill-0, #EC4B2D)"/>
<path d="M298.053 49.6756C300.085 49.6756 301.733 51.3229 301.733 53.3551C301.733 55.3873 300.085 57.0347 298.053 57.0347C296.021 57.0345 294.374 55.3871 294.373 53.3551C294.373 51.323 296.021 49.6758 298.053 49.6756Z" fill="var(--fill-0, #EC4B2D)"/>
<path d="M316.452 49.6756C318.484 49.6756 320.131 51.323 320.131 53.3551C320.131 55.3872 318.484 57.0346 316.452 57.0347C314.42 57.0346 312.772 55.3872 312.772 53.3551C312.772 51.3229 314.42 49.6756 316.452 49.6756Z" fill="var(--fill-0, #EC4B2D)"/>
<path d="M334.85 49.6756C336.882 49.6756 338.529 51.3229 338.529 53.3551C338.529 55.3873 336.882 57.0347 334.85 57.0347C332.818 57.0344 331.17 55.3871 331.17 53.3551C331.17 51.3231 332.818 49.6758 334.85 49.6756Z" fill="var(--fill-0, #EC4B2D)"/>
<path d="M353.249 49.6756C355.281 49.6756 356.928 51.3229 356.928 53.3551C356.928 55.3872 355.281 57.0346 353.249 57.0347C351.216 57.0346 349.569 55.3872 349.569 53.3551C349.569 51.3229 351.216 49.6756 353.249 49.6756Z" fill="var(--fill-0, #EC4B2D)"/>
<path d="M371.646 49.6756C373.679 49.6756 375.326 51.3229 375.326 53.3551C375.326 55.3873 373.679 57.0347 371.646 57.0347C369.614 57.0344 367.967 55.3871 367.967 53.3551C367.967 51.3231 369.614 49.6758 371.646 49.6756Z" fill="var(--fill-0, #EC4B2D)"/>
<path d="M390.045 49.6756C392.077 49.6756 393.725 51.3229 393.725 53.3551C393.725 55.3873 392.077 57.0347 390.045 57.0347C388.013 57.0346 386.366 55.3872 386.366 53.3551C386.366 51.3229 388.013 49.6756 390.045 49.6756Z" fill="var(--fill-0, #EC4B2D)"/>
<path d="M408.443 49.6756C410.475 49.6756 412.123 51.3229 412.123 53.3551C412.123 55.3873 410.475 57.0347 408.443 57.0347C406.411 57.0344 404.764 55.3871 404.764 53.3551C404.764 51.3231 406.411 49.6759 408.443 49.6756Z" fill="var(--fill-0, #EC4B2D)"/>
<path d="M426.842 49.6756C428.874 49.6756 430.522 51.3229 430.522 53.3551C430.521 55.3873 428.874 57.0347 426.842 57.0347C424.81 57.0346 423.162 55.3872 423.162 53.3551C423.162 51.3229 424.81 49.6756 426.842 49.6756Z" fill="var(--fill-0, #EC4B2D)"/>
<path d="M445.241 49.6756C447.273 49.6758 448.92 51.3231 448.92 53.3551C448.92 55.3871 447.273 57.0344 445.241 57.0347C443.209 57.0346 441.561 55.3872 441.561 53.3551C441.561 51.3229 443.209 49.6756 445.241 49.6756Z" fill="var(--fill-0, #EC4B2D)"/>
<path d="M463.639 49.6756C465.671 49.6756 467.318 51.3229 467.318 53.3551C467.318 55.3873 465.671 57.0347 463.639 57.0347C461.606 57.0346 459.959 55.3872 459.959 53.3551C459.959 51.3229 461.606 49.6756 463.639 49.6756Z" fill="var(--fill-0, #EC4B2D)"/>
<path d="M482.037 49.6756C484.069 49.6758 485.717 51.3231 485.717 53.3551C485.717 55.3871 484.069 57.0344 482.037 57.0347C480.005 57.0346 478.358 55.3872 478.358 53.3551C478.358 51.3229 480.005 49.6756 482.037 49.6756Z" fill="var(--fill-0, #EC4B2D)"/>
<path d="M500.435 49.6756C502.468 49.6756 504.115 51.3229 504.115 53.3551C504.115 55.3873 502.467 57.0347 500.435 57.0347C498.403 57.0346 496.756 55.3872 496.756 53.3551C496.756 51.323 498.403 49.6756 500.435 49.6756Z" fill="var(--fill-0, #EC4B2D)"/>
<path d="M518.834 49.6756C520.866 49.6758 522.514 51.323 522.514 53.3551C522.514 55.3871 520.866 57.0344 518.834 57.0347C516.802 57.0346 515.155 55.3872 515.155 53.3551C515.155 51.3229 516.802 49.6756 518.834 49.6756Z" fill="var(--fill-0, #EC4B2D)"/>
<path d="M537.232 49.6756C539.264 49.6756 540.912 51.3229 540.912 53.3551C540.911 55.3873 539.264 57.0347 537.232 57.0347C535.2 57.0346 533.553 55.3872 533.552 53.3551C533.552 51.323 535.2 49.6757 537.232 49.6756Z" fill="var(--fill-0, #EC4B2D)"/>
<path d="M555.631 49.6756C557.663 49.6758 559.31 51.323 559.31 53.3551C559.31 55.3872 557.663 57.0345 555.631 57.0347C553.599 57.0346 551.951 55.3872 551.951 53.3551C551.951 51.3229 553.599 49.6756 555.631 49.6756Z" fill="var(--fill-0, #EC4B2D)"/>
<path d="M574.029 49.6756C576.061 49.6756 577.708 51.3229 577.708 53.3551C577.708 55.3873 576.061 57.0347 574.029 57.0347C571.997 57.0346 570.349 55.3872 570.349 53.3551C570.349 51.323 571.997 49.6757 574.029 49.6756Z" fill="var(--fill-0, #EC4B2D)"/>
<path d="M592.428 49.6756C594.46 49.6758 596.107 51.323 596.107 53.3551C596.107 55.3872 594.46 57.0345 592.428 57.0347C590.395 57.0346 588.748 55.3872 588.748 53.3551C588.748 51.3229 590.395 49.6756 592.428 49.6756Z" fill="var(--fill-0, #EC4B2D)"/>
<path d="M610.825 49.6756C612.858 49.6756 614.505 51.3229 614.505 53.3551C614.505 55.3873 612.858 57.0347 610.825 57.0347C608.793 57.0345 607.146 55.3872 607.146 53.3551C607.146 51.323 608.793 49.6757 610.825 49.6756Z" fill="var(--fill-0, #EC4B2D)"/>
<path d="M629.224 49.6756C631.256 49.6757 632.904 51.323 632.904 53.3551C632.904 55.3872 631.256 57.0345 629.224 57.0347C627.192 57.0346 625.545 55.3872 625.545 53.3551C625.545 51.3229 627.192 49.6756 629.224 49.6756Z" fill="var(--fill-0, #EC4B2D)"/>
<path d="M647.622 49.6756C649.654 49.6756 651.302 51.3229 651.302 53.3551C651.302 55.3873 649.654 57.0347 647.622 57.0347C645.59 57.0345 643.943 55.3872 643.942 53.3551C643.942 51.323 645.59 49.6757 647.622 49.6756Z" fill="var(--fill-0, #EC4B2D)"/>
<path d="M666.021 49.6756C668.053 49.6757 669.7 51.323 669.7 53.3551C669.7 55.3872 668.053 57.0346 666.021 57.0347C663.989 57.0346 662.341 55.3872 662.341 53.3551C662.341 51.3229 663.989 49.6756 666.021 49.6756Z" fill="var(--fill-0, #EC4B2D)"/>
<path d="M684.419 49.6756C686.451 49.6756 688.098 51.3229 688.098 53.3551C688.098 55.3873 686.451 57.0347 684.419 57.0347C682.387 57.0345 680.739 55.3872 680.739 53.3551C680.739 51.323 682.387 49.6758 684.419 49.6756Z" fill="var(--fill-0, #EC4B2D)"/>
<path d="M702.818 49.6756C704.85 49.6757 706.497 51.323 706.497 53.3551C706.497 55.3872 704.85 57.0346 702.818 57.0347C700.785 57.0346 699.138 55.3872 699.138 53.3551C699.138 51.3229 700.785 49.6756 702.818 49.6756Z" fill="var(--fill-0, #EC4B2D)"/>
<path d="M721.215 49.6756C723.248 49.6756 724.895 51.3229 724.895 53.3551C724.895 55.3873 723.248 57.0347 721.215 57.0347C719.183 57.0345 717.536 55.3871 717.536 53.3551C717.536 51.323 719.183 49.6758 721.215 49.6756Z" fill="var(--fill-0, #EC4B2D)"/>
<path d="M3.67954 33.117C5.71176 33.117 7.3591 34.7643 7.3591 36.7966C7.35902 38.8287 5.71171 40.4761 3.67954 40.4761C1.64741 40.4761 5.02821e-05 38.8287 -3.05176e-05 36.7966C-3.05176e-05 34.7644 1.64736 33.1171 3.67954 33.117Z" fill="var(--fill-0, #EC4B2D)"/>
<path d="M22.0784 33.117C24.1104 33.1173 25.758 34.7645 25.758 36.7966C25.7579 38.8286 24.1103 40.4759 22.0784 40.4761C20.0463 40.4761 18.3989 38.8287 18.3988 36.7966C18.3988 34.7644 20.0462 33.1171 22.0784 33.117Z" fill="var(--fill-0, #EC4B2D)"/>
<path d="M40.4762 33.117C42.5084 33.117 44.1558 34.7643 44.1558 36.7966C44.1557 38.8287 42.5084 40.4761 40.4762 40.4761C38.4441 40.4761 36.7967 38.8287 36.7967 36.7966C36.7967 34.7644 38.4441 33.1171 40.4762 33.117Z" fill="var(--fill-0, #EC4B2D)"/>
<path d="M58.8751 33.117C60.9071 33.1172 62.5546 34.7645 62.5546 36.7966C62.5546 38.8286 60.907 40.4759 58.8751 40.4761C56.8429 40.4761 55.1956 38.8287 55.1955 36.7966C55.1955 34.7644 56.8429 33.1171 58.8751 33.117Z" fill="var(--fill-0, #EC4B2D)"/>
<path d="M77.2729 33.117C79.3051 33.117 80.9525 34.7643 80.9525 36.7966C80.9524 38.8287 79.3051 40.4761 77.2729 40.4761C75.2408 40.476 73.5934 38.8287 73.5933 36.7966C73.5933 34.7644 75.2408 33.1171 77.2729 33.117Z" fill="var(--fill-0, #EC4B2D)"/>
<path d="M95.6718 33.117C97.7038 33.1172 99.3513 34.7645 99.3513 36.7966C99.3512 38.8286 97.7038 40.4759 95.6718 40.4761C93.6396 40.4761 91.9923 38.8287 91.9922 36.7966C91.9922 34.7644 93.6396 33.1171 95.6718 33.117Z" fill="var(--fill-0, #EC4B2D)"/>
<path d="M114.07 33.117C116.102 33.117 117.749 34.7643 117.749 36.7966C117.749 38.8287 116.102 40.4761 114.07 40.4761C112.038 40.476 110.39 38.8286 110.39 36.7966C110.39 34.7644 112.037 33.1171 114.07 33.117Z" fill="var(--fill-0, #EC4B2D)"/>
<path d="M132.468 33.117C134.501 33.1172 136.148 34.7645 136.148 36.7966C136.148 38.8286 134.5 40.4759 132.468 40.4761C130.436 40.4761 128.789 38.8287 128.789 36.7966C128.789 34.7644 130.436 33.1171 132.468 33.117Z" fill="var(--fill-0, #EC4B2D)"/>
<path d="M150.866 33.117C152.899 33.117 154.546 34.7643 154.546 36.7966C154.546 38.8287 152.898 40.4761 150.866 40.4761C148.834 40.476 147.187 38.8286 147.187 36.7966C147.187 34.7644 148.834 33.1171 150.866 33.117Z" fill="var(--fill-0, #EC4B2D)"/>
<path d="M169.265 33.117C171.297 33.1172 172.945 34.7644 172.945 36.7966C172.945 38.8286 171.297 40.476 169.265 40.4761C167.233 40.4761 165.586 38.8287 165.586 36.7966C165.586 34.7644 167.233 33.1171 169.265 33.117Z" fill="var(--fill-0, #EC4B2D)"/>
<path d="M187.663 33.117C189.695 33.117 191.343 34.7643 191.343 36.7966C191.342 38.8287 189.695 40.4761 187.663 40.4761C185.631 40.476 183.983 38.8286 183.983 36.7966C183.983 34.7644 185.631 33.1172 187.663 33.117Z" fill="var(--fill-0, #EC4B2D)"/>
<path d="M206.062 33.117C208.094 33.1172 209.741 34.7644 209.741 36.7966C209.741 38.8286 208.094 40.476 206.062 40.4761C204.03 40.4761 202.382 38.8287 202.382 36.7966C202.382 34.7644 204.03 33.1171 206.062 33.117Z" fill="var(--fill-0, #EC4B2D)"/>
<path d="M224.46 33.117C226.492 33.117 228.139 34.7643 228.139 36.7966C228.139 38.8287 226.492 40.4761 224.46 40.4761C222.428 40.4759 220.78 38.8286 220.78 36.7966C220.78 34.7645 222.428 33.1172 224.46 33.117Z" fill="var(--fill-0, #EC4B2D)"/>
<path d="M242.859 33.117C244.891 33.1171 246.538 34.7644 246.538 36.7966C246.538 38.8286 244.891 40.476 242.859 40.4761C240.826 40.4761 239.179 38.8287 239.179 36.7966C239.179 34.7644 240.826 33.1171 242.859 33.117Z" fill="var(--fill-0, #EC4B2D)"/>
<path d="M261.256 33.117C263.289 33.117 264.936 34.7643 264.936 36.7966C264.936 38.8287 263.289 40.4761 261.256 40.4761C259.224 40.4759 257.577 38.8286 257.577 36.7966C257.577 34.7645 259.224 33.1172 261.256 33.117Z" fill="var(--fill-0, #EC4B2D)"/>
<path d="M279.655 33.117C281.687 33.1171 283.335 34.7644 283.335 36.7966C283.335 38.8287 281.687 40.476 279.655 40.4761C277.623 40.4761 275.976 38.8287 275.976 36.7966C275.976 34.7644 277.623 33.1171 279.655 33.117Z" fill="var(--fill-0, #EC4B2D)"/>
<path d="M298.053 33.117C300.085 33.117 301.733 34.7643 301.733 36.7966C301.733 38.8287 300.085 40.4761 298.053 40.4761C296.021 40.4759 294.374 38.8286 294.373 36.7966C294.373 34.7645 296.021 33.1172 298.053 33.117Z" fill="var(--fill-0, #EC4B2D)"/>
<path d="M316.452 33.117C318.484 33.1171 320.131 34.7644 320.131 36.7966C320.131 38.8287 318.484 40.476 316.452 40.4761C314.42 40.4761 312.772 38.8287 312.772 36.7966C312.772 34.7644 314.42 33.1171 316.452 33.117Z" fill="var(--fill-0, #EC4B2D)"/>
<path d="M334.85 33.117C336.882 33.117 338.529 34.7643 338.529 36.7966C338.529 38.8287 336.882 40.4761 334.85 40.4761C332.818 40.4759 331.17 38.8286 331.17 36.7966C331.17 34.7645 332.818 33.1173 334.85 33.117Z" fill="var(--fill-0, #EC4B2D)"/>
<path d="M353.249 33.117C355.281 33.1171 356.928 34.7644 356.928 36.7966C356.928 38.8287 355.281 40.4761 353.249 40.4761C351.216 40.4761 349.569 38.8287 349.569 36.7966C349.569 34.7644 351.216 33.1171 353.249 33.117Z" fill="var(--fill-0, #EC4B2D)"/>
<path d="M371.646 33.117C373.679 33.117 375.326 34.7643 375.326 36.7966C375.326 38.8287 373.679 40.4761 371.646 40.4761C369.614 40.4758 367.967 38.8285 367.967 36.7966C367.967 34.7645 369.614 33.1173 371.646 33.117Z" fill="var(--fill-0, #EC4B2D)"/>
<path d="M390.045 33.117C392.077 33.117 393.725 34.7644 393.725 36.7966C393.725 38.8287 392.077 40.4761 390.045 40.4761C388.013 40.4761 386.366 38.8287 386.366 36.7966C386.366 34.7644 388.013 33.1171 390.045 33.117Z" fill="var(--fill-0, #EC4B2D)"/>
<path d="M408.443 33.117C410.475 33.117 412.123 34.7643 412.123 36.7966C412.123 38.8287 410.475 40.4761 408.443 40.4761C406.411 40.4758 404.764 38.8285 404.764 36.7966C404.764 34.7645 406.411 33.1173 408.443 33.117Z" fill="var(--fill-0, #EC4B2D)"/>
<path d="M426.842 33.117C428.874 33.117 430.522 34.7643 430.522 36.7966C430.521 38.8287 428.874 40.4761 426.842 40.4761C424.81 40.4761 423.162 38.8287 423.162 36.7966C423.162 34.7644 424.81 33.1171 426.842 33.117Z" fill="var(--fill-0, #EC4B2D)"/>
<path d="M445.241 33.117C447.273 33.1173 448.92 34.7645 448.92 36.7966C448.92 38.8286 447.273 40.4759 445.241 40.4761C443.209 40.4761 441.561 38.8287 441.561 36.7966C441.561 34.7644 443.209 33.1171 445.241 33.117Z" fill="var(--fill-0, #EC4B2D)"/>
<path d="M463.639 33.117C465.671 33.117 467.318 34.7643 467.318 36.7966C467.318 38.8287 465.671 40.4761 463.639 40.4761C461.606 40.4761 459.959 38.8287 459.959 36.7966C459.959 34.7644 461.606 33.1171 463.639 33.117Z" fill="var(--fill-0, #EC4B2D)"/>
<path d="M482.037 33.117C484.069 33.1173 485.717 34.7645 485.717 36.7966C485.717 38.8286 484.069 40.4759 482.037 40.4761C480.005 40.4761 478.358 38.8287 478.358 36.7966C478.358 34.7644 480.005 33.1171 482.037 33.117Z" fill="var(--fill-0, #EC4B2D)"/>
<path d="M500.435 33.117C502.468 33.117 504.115 34.7643 504.115 36.7966C504.115 38.8287 502.467 40.4761 500.435 40.4761C498.403 40.476 496.756 38.8287 496.756 36.7966C496.756 34.7644 498.403 33.1171 500.435 33.117Z" fill="var(--fill-0, #EC4B2D)"/>
<path d="M518.834 33.117C520.866 33.1172 522.514 34.7645 522.514 36.7966C522.514 38.8286 520.866 40.4759 518.834 40.4761C516.802 40.4761 515.155 38.8287 515.155 36.7966C515.155 34.7644 516.802 33.1171 518.834 33.117Z" fill="var(--fill-0, #EC4B2D)"/>
<path d="M537.232 33.117C539.264 33.117 540.912 34.7643 540.912 36.7966C540.911 38.8287 539.264 40.4761 537.232 40.4761C535.2 40.476 533.553 38.8287 533.552 36.7966C533.552 34.7644 535.2 33.1171 537.232 33.117Z" fill="var(--fill-0, #EC4B2D)"/>
<path d="M555.631 33.117C557.663 33.1172 559.31 34.7645 559.31 36.7966C559.31 38.8286 557.663 40.4759 555.631 40.4761C553.599 40.4761 551.951 38.8287 551.951 36.7966C551.951 34.7644 553.599 33.1171 555.631 33.117Z" fill="var(--fill-0, #EC4B2D)"/>
<path d="M574.029 33.117C576.061 33.117 577.708 34.7643 577.708 36.7966C577.708 38.8287 576.061 40.4761 574.029 40.4761C571.997 40.476 570.349 38.8286 570.349 36.7966C570.349 34.7644 571.997 33.1171 574.029 33.117Z" fill="var(--fill-0, #EC4B2D)"/>
<path d="M592.428 33.117C594.46 33.1172 596.107 34.7645 596.107 36.7966C596.107 38.8286 594.46 40.4759 592.428 40.4761C590.395 40.4761 588.748 38.8287 588.748 36.7966C588.748 34.7644 590.395 33.1171 592.428 33.117Z" fill="var(--fill-0, #EC4B2D)"/>
<path d="M610.825 33.117C612.858 33.117 614.505 34.7643 614.505 36.7966C614.505 38.8287 612.858 40.4761 610.825 40.4761C608.793 40.476 607.146 38.8286 607.146 36.7966C607.146 34.7644 608.793 33.1172 610.825 33.117Z" fill="var(--fill-0, #EC4B2D)"/>
<path d="M629.224 33.117C631.256 33.1172 632.904 34.7644 632.904 36.7966C632.904 38.8286 631.256 40.476 629.224 40.4761C627.192 40.4761 625.545 38.8287 625.545 36.7966C625.545 34.7644 627.192 33.1171 629.224 33.117Z" fill="var(--fill-0, #EC4B2D)"/>
<path d="M647.622 33.117C649.654 33.117 651.302 34.7643 651.302 36.7966C651.302 38.8287 649.654 40.4761 647.622 40.4761C645.59 40.476 643.943 38.8286 643.942 36.7966C643.942 34.7644 645.59 33.1172 647.622 33.117Z" fill="var(--fill-0, #EC4B2D)"/>
<path d="M666.021 33.117C668.053 33.1171 669.7 34.7644 669.7 36.7966C669.7 38.8286 668.053 40.476 666.021 40.4761C663.989 40.4761 662.341 38.8287 662.341 36.7966C662.341 34.7644 663.989 33.1171 666.021 33.117Z" fill="var(--fill-0, #EC4B2D)"/>
<path d="M684.419 33.117C686.451 33.117 688.098 34.7643 688.098 36.7966C688.098 38.8287 686.451 40.4761 684.419 40.4761C682.387 40.4759 680.739 38.8286 680.739 36.7966C680.739 34.7645 682.387 33.1172 684.419 33.117Z" fill="var(--fill-0, #EC4B2D)"/>
<path d="M702.818 33.117C704.85 33.1171 706.497 34.7644 706.497 36.7966C706.497 38.8286 704.85 40.476 702.818 40.4761C700.785 40.4761 699.138 38.8287 699.138 36.7966C699.138 34.7644 700.785 33.1171 702.818 33.117Z" fill="var(--fill-0, #EC4B2D)"/>
<path d="M721.215 33.117C723.248 33.117 724.895 34.7643 724.895 36.7966C724.895 38.8287 723.248 40.4761 721.215 40.4761C719.183 40.4759 717.536 38.8286 717.536 36.7966C717.536 34.7645 719.183 33.1172 721.215 33.117Z" fill="var(--fill-0, #EC4B2D)"/>
<path d="M3.67954 16.5584C5.71176 16.5584 7.3591 18.2058 7.3591 20.238C7.35902 22.2702 5.71171 23.9176 3.67954 23.9176C1.64741 23.9175 5.02821e-05 22.2701 -3.05176e-05 20.238C-3.05176e-05 18.2058 1.64736 16.5585 3.67954 16.5584Z" fill="var(--fill-0, #EC4B2D)"/>
<path d="M22.0784 16.5584C24.1104 16.5587 25.758 18.2059 25.758 20.238C25.7579 22.27 24.1103 23.9173 22.0784 23.9176C20.0463 23.9175 18.3989 22.2701 18.3988 20.238C18.3988 18.2058 20.0462 16.5585 22.0784 16.5584Z" fill="var(--fill-0, #EC4B2D)"/>
<path d="M40.4762 16.5584C42.5084 16.5584 44.1558 18.2058 44.1558 20.238C44.1557 22.2702 42.5084 23.9176 40.4762 23.9176C38.4441 23.9175 36.7967 22.2701 36.7967 20.238C36.7967 18.2058 38.4441 16.5585 40.4762 16.5584Z" fill="var(--fill-0, #EC4B2D)"/>
<path d="M58.8751 16.5584C60.9071 16.5587 62.5546 18.2059 62.5546 20.238C62.5546 22.27 60.907 23.9173 58.8751 23.9176C56.8429 23.9175 55.1956 22.2701 55.1955 20.238C55.1955 18.2058 56.8429 16.5585 58.8751 16.5584Z" fill="var(--fill-0, #EC4B2D)"/>
<path d="M77.2729 16.5584C79.3051 16.5584 80.9525 18.2058 80.9525 20.238C80.9524 22.2702 79.3051 23.9176 77.2729 23.9176C75.2408 23.9175 73.5934 22.2701 73.5933 20.238C73.5933 18.2058 75.2408 16.5585 77.2729 16.5584Z" fill="var(--fill-0, #EC4B2D)"/>
<path d="M95.6718 16.5584C97.7038 16.5587 99.3513 18.2059 99.3513 20.238C99.3512 22.27 97.7038 23.9173 95.6718 23.9176C93.6396 23.9175 91.9923 22.2701 91.9922 20.238C91.9922 18.2058 93.6396 16.5585 95.6718 16.5584Z" fill="var(--fill-0, #EC4B2D)"/>
<path d="M114.07 16.5584C116.102 16.5584 117.749 18.2058 117.749 20.238C117.749 22.2702 116.102 23.9176 114.07 23.9176C112.038 23.9174 110.39 22.2701 110.39 20.238C110.39 18.2059 112.037 16.5586 114.07 16.5584Z" fill="var(--fill-0, #EC4B2D)"/>
<path d="M132.468 16.5584C134.501 16.5586 136.148 18.2059 136.148 20.238C136.148 22.27 134.5 23.9174 132.468 23.9176C130.436 23.9175 128.789 22.2701 128.789 20.238C128.789 18.2058 130.436 16.5585 132.468 16.5584Z" fill="var(--fill-0, #EC4B2D)"/>
<path d="M150.866 16.5584C152.899 16.5584 154.546 18.2058 154.546 20.238C154.546 22.2702 152.898 23.9176 150.866 23.9176C148.834 23.9174 147.187 22.2701 147.187 20.238C147.187 18.2059 148.834 16.5586 150.866 16.5584Z" fill="var(--fill-0, #EC4B2D)"/>
<path d="M169.265 16.5584C171.297 16.5586 172.945 18.2059 172.945 20.238C172.945 22.2701 171.297 23.9174 169.265 23.9176C167.233 23.9175 165.586 22.2701 165.586 20.238C165.586 18.2058 167.233 16.5585 169.265 16.5584Z" fill="var(--fill-0, #EC4B2D)"/>
<path d="M187.663 16.5584C189.695 16.5584 191.343 18.2058 191.343 20.238C191.342 22.2702 189.695 23.9176 187.663 23.9176C185.631 23.9174 183.983 22.2701 183.983 20.238C183.983 18.2059 185.631 16.5586 187.663 16.5584Z" fill="var(--fill-0, #EC4B2D)"/>
<path d="M206.062 16.5584C208.094 16.5586 209.741 18.2059 209.741 20.238C209.741 22.2701 208.094 23.9174 206.062 23.9176C204.03 23.9175 202.382 22.2701 202.382 20.238C202.382 18.2058 204.03 16.5585 206.062 16.5584Z" fill="var(--fill-0, #EC4B2D)"/>
<path d="M224.46 16.5584C226.492 16.5584 228.139 18.2058 228.139 20.238C228.139 22.2702 226.492 23.9176 224.46 23.9176C222.428 23.9174 220.78 22.27 220.78 20.238C220.78 18.2059 222.428 16.5586 224.46 16.5584Z" fill="var(--fill-0, #EC4B2D)"/>
<path d="M242.859 16.5584C244.891 16.5586 246.538 18.2059 246.538 20.238C246.538 22.2701 244.891 23.9174 242.859 23.9176C240.826 23.9175 239.179 22.2701 239.179 20.238C239.179 18.2058 240.826 16.5585 242.859 16.5584Z" fill="var(--fill-0, #EC4B2D)"/>
<path d="M261.256 16.5584C263.289 16.5584 264.936 18.2058 264.936 20.238C264.936 22.2702 263.289 23.9176 261.256 23.9176C259.224 23.9174 257.577 22.27 257.577 20.238C257.577 18.2059 259.224 16.5587 261.256 16.5584Z" fill="var(--fill-0, #EC4B2D)"/>
<path d="M279.655 16.5584C281.687 16.5585 283.335 18.2058 283.335 20.238C283.335 22.2701 281.687 23.9175 279.655 23.9176C277.623 23.9175 275.976 22.2701 275.976 20.238C275.976 18.2058 277.623 16.5585 279.655 16.5584Z" fill="var(--fill-0, #EC4B2D)"/>
<path d="M298.053 16.5584C300.085 16.5584 301.733 18.2058 301.733 20.238C301.733 22.2702 300.085 23.9176 298.053 23.9176C296.021 23.9173 294.374 22.27 294.373 20.238C294.373 18.2059 296.021 16.5587 298.053 16.5584Z" fill="var(--fill-0, #EC4B2D)"/>
<path d="M316.452 16.5584C318.484 16.5585 320.131 18.2058 320.131 20.238C320.131 22.2701 318.484 23.9175 316.452 23.9176C314.42 23.9175 312.772 22.2701 312.772 20.238C312.772 18.2058 314.42 16.5585 316.452 16.5584Z" fill="var(--fill-0, #EC4B2D)"/>
<path d="M334.85 16.5584C336.882 16.5584 338.529 18.2058 338.529 20.238C338.529 22.2702 336.882 23.9176 334.85 23.9176C332.818 23.9173 331.17 22.27 331.17 20.238C331.17 18.2059 332.818 16.5587 334.85 16.5584Z" fill="var(--fill-0, #EC4B2D)"/>
<path d="M353.249 16.5584C355.281 16.5585 356.928 18.2058 356.928 20.238C356.928 22.2701 355.281 23.9175 353.249 23.9176C351.216 23.9175 349.569 22.2701 349.569 20.238C349.569 18.2058 351.216 16.5585 353.249 16.5584Z" fill="var(--fill-0, #EC4B2D)"/>
<path d="M371.646 16.5584C373.679 16.5584 375.326 18.2058 375.326 20.238C375.326 22.2702 373.679 23.9176 371.646 23.9176C369.614 23.9173 367.967 22.27 367.967 20.238C367.967 18.206 369.614 16.5587 371.646 16.5584Z" fill="var(--fill-0, #EC4B2D)"/>
<path d="M390.045 16.5584C392.077 16.5585 393.725 18.2058 393.725 20.238C393.725 22.2701 392.077 23.9175 390.045 23.9176C388.013 23.9175 386.366 22.2701 386.366 20.238C386.366 18.2058 388.013 16.5585 390.045 16.5584Z" fill="var(--fill-0, #EC4B2D)"/>
<path d="M408.443 16.5584C410.475 16.5584 412.123 18.2058 412.123 20.238C412.123 22.2702 410.475 23.9176 408.443 23.9176C406.411 23.9173 404.764 22.27 404.764 20.238C404.764 18.206 406.411 16.5587 408.443 16.5584Z" fill="var(--fill-0, #EC4B2D)"/>
<path d="M426.842 16.5584C428.874 16.5585 430.522 18.2058 430.522 20.238C430.521 22.2702 428.874 23.9176 426.842 23.9176C424.81 23.9175 423.162 22.2701 423.162 20.238C423.162 18.2058 424.81 16.5585 426.842 16.5584Z" fill="var(--fill-0, #EC4B2D)"/>
<path d="M445.241 16.5584C447.273 16.5587 448.92 18.2059 448.92 20.238C448.92 22.27 447.273 23.9173 445.241 23.9176C443.209 23.9175 441.561 22.2701 441.561 20.238C441.561 18.2058 443.209 16.5585 445.241 16.5584Z" fill="var(--fill-0, #EC4B2D)"/>
<path d="M463.639 16.5584C465.671 16.5584 467.318 18.2058 467.318 20.238C467.318 22.2702 465.671 23.9176 463.639 23.9176C461.606 23.9175 459.959 22.2701 459.959 20.238C459.959 18.2058 461.606 16.5585 463.639 16.5584Z" fill="var(--fill-0, #EC4B2D)"/>
<path d="M482.037 16.5584C484.069 16.5587 485.717 18.2059 485.717 20.238C485.717 22.27 484.069 23.9173 482.037 23.9176C480.005 23.9175 478.358 22.2701 478.358 20.238C478.358 18.2058 480.005 16.5585 482.037 16.5584Z" fill="var(--fill-0, #EC4B2D)"/>
<path d="M500.435 16.5584C502.468 16.5584 504.115 18.2058 504.115 20.238C504.115 22.2702 502.467 23.9176 500.435 23.9176C498.403 23.9175 496.756 22.2701 496.756 20.238C496.756 18.2058 498.403 16.5585 500.435 16.5584Z" fill="var(--fill-0, #EC4B2D)"/>
<path d="M518.834 16.5584C520.866 16.5587 522.514 18.2059 522.514 20.238C522.514 22.27 520.866 23.9173 518.834 23.9176C516.802 23.9175 515.155 22.2701 515.155 20.238C515.155 18.2058 516.802 16.5585 518.834 16.5584Z" fill="var(--fill-0, #EC4B2D)"/>
<path d="M537.232 16.5584C539.264 16.5584 540.912 18.2058 540.912 20.238C540.911 22.2702 539.264 23.9176 537.232 23.9176C535.2 23.9175 533.553 22.2701 533.552 20.238C533.552 18.2058 535.2 16.5585 537.232 16.5584Z" fill="var(--fill-0, #EC4B2D)"/>
<path d="M555.631 16.5584C557.663 16.5586 559.31 18.2059 559.31 20.238C559.31 22.27 557.663 23.9174 555.631 23.9176C553.599 23.9175 551.951 22.2701 551.951 20.238C551.951 18.2058 553.599 16.5585 555.631 16.5584Z" fill="var(--fill-0, #EC4B2D)"/>
<path d="M574.029 16.5584C576.061 16.5584 577.708 18.2058 577.708 20.238C577.708 22.2702 576.061 23.9176 574.029 23.9176C571.997 23.9174 570.349 22.2701 570.349 20.238C570.349 18.2059 571.997 16.5586 574.029 16.5584Z" fill="var(--fill-0, #EC4B2D)"/>
<path d="M592.428 16.5584C594.46 16.5586 596.107 18.2059 596.107 20.238C596.107 22.27 594.46 23.9174 592.428 23.9176C590.395 23.9175 588.748 22.2701 588.748 20.238C588.748 18.2058 590.395 16.5585 592.428 16.5584Z" fill="var(--fill-0, #EC4B2D)"/>
<path d="M610.825 16.5584C612.858 16.5584 614.505 18.2058 614.505 20.238C614.505 22.2702 612.858 23.9176 610.825 23.9176C608.793 23.9174 607.146 22.2701 607.146 20.238C607.146 18.2059 608.793 16.5586 610.825 16.5584Z" fill="var(--fill-0, #EC4B2D)"/>
<path d="M629.224 16.5584C631.256 16.5586 632.904 18.2059 632.904 20.238C632.904 22.2701 631.256 23.9174 629.224 23.9176C627.192 23.9175 625.545 22.2701 625.545 20.238C625.545 18.2058 627.192 16.5585 629.224 16.5584Z" fill="var(--fill-0, #EC4B2D)"/>
<path d="M647.622 16.5584C649.654 16.5584 651.302 18.2058 651.302 20.238C651.302 22.2702 649.654 23.9176 647.622 23.9176C645.59 23.9174 643.943 22.2701 643.942 20.238C643.942 18.2059 645.59 16.5586 647.622 16.5584Z" fill="var(--fill-0, #EC4B2D)"/>
<path d="M666.021 16.5584C668.053 16.5586 669.7 18.2059 669.7 20.238C669.7 22.2701 668.053 23.9174 666.021 23.9176C663.989 23.9175 662.341 22.2701 662.341 20.238C662.341 18.2058 663.989 16.5585 666.021 16.5584Z" fill="var(--fill-0, #EC4B2D)"/>
<path d="M684.419 16.5584C686.451 16.5584 688.098 18.2058 688.098 20.238C688.098 22.2702 686.451 23.9176 684.419 23.9176C682.387 23.9174 680.739 22.27 680.739 20.238C680.739 18.2059 682.387 16.5586 684.419 16.5584Z" fill="var(--fill-0, #EC4B2D)"/>
<path d="M702.818 16.5584C704.85 16.5586 706.497 18.2059 706.497 20.238C706.497 22.2701 704.85 23.9174 702.818 23.9176C700.785 23.9175 699.138 22.2701 699.138 20.238C699.138 18.2058 700.785 16.5585 702.818 16.5584Z" fill="var(--fill-0, #EC4B2D)"/>
<path d="M721.215 16.5584C723.248 16.5584 724.895 18.2058 724.895 20.238C724.895 22.2702 723.248 23.9176 721.215 23.9176C719.183 23.9173 717.536 22.27 717.536 20.238C717.536 18.2059 719.183 16.5587 721.215 16.5584Z" fill="var(--fill-0, #EC4B2D)"/>
<path d="M3.67954 -0.00012207C5.71173 -0.00012207 7.35904 1.64727 7.3591 3.67944C7.3591 5.71167 5.71176 7.35901 3.67954 7.35901C1.64736 7.35895 -3.05176e-05 5.71164 -3.05176e-05 3.67944C2.70423e-05 1.6473 1.64739 -6.451e-05 3.67954 -0.00012207Z" fill="var(--fill-0, #EC4B2D)"/>
<path d="M22.0784 -0.00012207C24.1104 0.00014382 25.7579 1.64743 25.758 3.67944C25.758 5.71151 24.1104 7.35874 22.0784 7.35901C20.0462 7.35895 18.3988 5.71164 18.3988 3.67944C18.3989 1.6473 20.0462 -6.451e-05 22.0784 -0.00012207Z" fill="var(--fill-0, #EC4B2D)"/>
<path d="M40.4762 -0.00012207C42.5084 -0.00012207 44.1557 1.64727 44.1558 3.67944C44.1558 5.71167 42.5084 7.35901 40.4762 7.35901C38.4441 7.35893 36.7967 5.71162 36.7967 3.67944C36.7967 1.64731 38.4441 -4.28916e-05 40.4762 -0.00012207Z" fill="var(--fill-0, #EC4B2D)"/>
<path d="M58.8751 -0.00012207C60.9071 0.000120043 62.5546 1.64742 62.5546 3.67944C62.5546 5.71152 60.9071 7.35877 58.8751 7.35901C56.8429 7.35895 55.1955 5.71164 55.1955 3.67944C55.1956 1.6473 56.8429 -6.451e-05 58.8751 -0.00012207Z" fill="var(--fill-0, #EC4B2D)"/>
<path d="M77.2729 -0.00012207C79.3051 -0.00012207 80.9524 1.64727 80.9525 3.67944C80.9525 5.71167 79.3051 7.35901 77.2729 7.35901C75.2408 7.35891 73.5933 5.71161 73.5933 3.67944C73.5934 1.64733 75.2408 -2.12737e-05 77.2729 -0.00012207Z" fill="var(--fill-0, #EC4B2D)"/>
<path d="M95.6718 -0.00012207C97.7038 9.84278e-05 99.3513 1.6474 99.3513 3.67944C99.3513 5.71154 97.7038 7.35879 95.6718 7.35901C93.6396 7.35895 91.9922 5.71164 91.9922 3.67944C91.9923 1.6473 93.6396 -6.451e-05 95.6718 -0.00012207Z" fill="var(--fill-0, #EC4B2D)"/>
<path d="M114.07 -0.00012207C116.102 -0.00012207 117.749 1.64727 117.749 3.67944C117.749 5.71167 116.102 7.35901 114.07 7.35901C112.037 7.35888 110.39 5.71159 110.39 3.67944C110.39 1.64734 112.038 4.66717e-06 114.07 -0.00012207Z" fill="var(--fill-0, #EC4B2D)"/>
<path d="M132.468 -0.00012207C134.5 7.68119e-05 136.148 1.64739 136.148 3.67944C136.148 5.71155 134.501 7.35881 132.468 7.35901C130.436 7.35895 128.789 5.71164 128.789 3.67944C128.789 1.6473 130.436 -6.451e-05 132.468 -0.00012207Z" fill="var(--fill-0, #EC4B2D)"/>
<path d="M150.866 -0.00012207C152.898 -0.00012207 154.546 1.64727 154.546 3.67944C154.546 5.71167 152.899 7.35901 150.866 7.35901C148.834 7.35887 147.187 5.71158 147.187 3.67944C147.187 1.64735 148.834 2.19607e-05 150.866 -0.00012207Z" fill="var(--fill-0, #EC4B2D)"/>
<path d="M169.265 -0.00012207C171.297 5.08724e-05 172.945 1.64737 172.945 3.67944C172.945 5.71156 171.297 7.35884 169.265 7.35901C167.233 7.35895 165.586 5.71164 165.586 3.67944C165.586 1.6473 167.233 -6.451e-05 169.265 -0.00012207Z" fill="var(--fill-0, #EC4B2D)"/>
<path d="M187.663 -0.00012207C189.695 -0.00012207 191.342 1.64727 191.343 3.67944C191.343 5.71167 189.695 7.35901 187.663 7.35901C185.631 7.35884 183.983 5.71157 183.983 3.67944C183.983 1.64737 185.631 4.79007e-05 187.663 -0.00012207Z" fill="var(--fill-0, #EC4B2D)"/>
<path d="M206.062 -0.00012207C208.094 3.35791e-05 209.741 1.64736 209.741 3.67944C209.741 5.71158 208.094 7.35885 206.062 7.35901C204.03 7.35895 202.382 5.71164 202.382 3.67944C202.382 1.6473 204.03 -6.451e-05 206.062 -0.00012207Z" fill="var(--fill-0, #EC4B2D)"/>
<path d="M224.46 -0.00012207C226.492 -0.00012207 228.139 1.64727 228.139 3.67944C228.139 5.71167 226.492 7.35901 224.46 7.35901C222.428 7.35881 220.78 5.71155 220.78 3.67944C220.78 1.64739 222.428 7.38405e-05 224.46 -0.00012207Z" fill="var(--fill-0, #EC4B2D)"/>
<path d="M242.859 -0.00012207C244.891 7.63873e-06 246.538 1.64735 246.538 3.67944C246.538 5.71159 244.891 7.35888 242.859 7.35901C240.826 7.35895 239.179 5.71164 239.179 3.67944C239.179 1.6473 240.826 -6.451e-05 242.859 -0.00012207Z" fill="var(--fill-0, #EC4B2D)"/>
<path d="M261.256 -0.00012207C263.289 -0.00012207 264.936 1.64727 264.936 3.67944C264.936 5.71167 263.289 7.35901 261.256 7.35901C259.224 7.3588 257.577 5.71154 257.577 3.67944C257.577 1.6474 259.224 9.11333e-05 261.256 -0.00012207Z" fill="var(--fill-0, #EC4B2D)"/>
<path d="M279.655 -0.00012207C281.687 -1.83021e-05 283.335 1.64733 283.335 3.67944C283.335 5.71161 281.687 7.35891 279.655 7.35901C277.623 7.35895 275.976 5.71164 275.976 3.67944C275.976 1.6473 277.623 -6.451e-05 279.655 -0.00012207Z" fill="var(--fill-0, #EC4B2D)"/>
<path d="M298.053 -0.00012207C300.085 -0.00012207 301.733 1.64727 301.733 3.67944C301.733 5.71167 300.085 7.35901 298.053 7.35901C296.021 7.35878 294.373 5.71153 294.373 3.67944C294.374 1.64741 296.021 0.000108426 298.053 -0.00012207Z" fill="var(--fill-0, #EC4B2D)"/>
<path d="M316.452 -0.00012207C318.484 -3.55963e-05 320.131 1.64732 320.131 3.67944C320.131 5.71162 318.484 7.35892 316.452 7.35901C314.42 7.35895 312.772 5.71164 312.772 3.67944C312.772 1.6473 314.42 -6.451e-05 316.452 -0.00012207Z" fill="var(--fill-0, #EC4B2D)"/>
<path d="M334.85 -0.00012207C336.882 -0.00012207 338.529 1.64727 338.529 3.67944C338.529 5.71167 336.882 7.35901 334.85 7.35901C332.818 7.35875 331.17 5.71151 331.17 3.67944C331.17 1.64743 332.818 0.00014301 334.85 -0.00012207Z" fill="var(--fill-0, #EC4B2D)"/>
<path d="M353.249 -0.00012207C355.281 -5.28906e-05 356.928 1.64731 356.928 3.67944C356.928 5.71163 355.281 7.35894 353.249 7.35901C351.216 7.35895 349.569 5.71164 349.569 3.67944C349.569 1.6473 351.216 -6.451e-05 353.249 -0.00012207Z" fill="var(--fill-0, #EC4B2D)"/>
<path d="M371.646 -0.00012207C373.679 -0.00012207 375.326 1.64727 375.326 3.67944C375.326 5.71167 373.679 7.35901 371.646 7.35901C369.614 7.35873 367.967 5.7115 367.967 3.67944C367.967 1.64744 369.614 0.000160302 371.646 -0.00012207Z" fill="var(--fill-0, #EC4B2D)"/>
<path d="M390.045 -0.00012207C392.077 -8.748e-05 393.725 1.64729 393.725 3.67944C393.725 5.71165 392.077 7.35898 390.045 7.35901C388.013 7.35895 386.366 5.71164 386.366 3.67944C386.366 1.6473 388.013 -6.451e-05 390.045 -0.00012207Z" fill="var(--fill-0, #EC4B2D)"/>
<path d="M408.443 -0.00012207C410.475 -0.00012207 412.123 1.64727 412.123 3.67944C412.123 5.71167 410.475 7.35901 408.443 7.35901C406.411 7.35871 404.764 5.71149 404.764 3.67944C404.764 1.64745 406.411 0.000177594 408.443 -0.00012207Z" fill="var(--fill-0, #EC4B2D)"/>
<path d="M426.842 -0.00012207C428.874 -0.000104775 430.521 1.64728 430.522 3.67944C430.522 5.71166 428.874 7.35899 426.842 7.35901C424.81 7.35895 423.162 5.71164 423.162 3.67944C423.162 1.6473 424.81 -6.451e-05 426.842 -0.00012207Z" fill="var(--fill-0, #EC4B2D)"/>
<path d="M445.241 -0.00012207C447.273 0.000154628 448.92 1.64744 448.92 3.67944C448.92 5.7115 447.273 7.35873 445.241 7.35901C443.209 7.35895 441.561 5.71164 441.561 3.67944C441.561 1.6473 443.209 -6.451e-05 445.241 -0.00012207Z" fill="var(--fill-0, #EC4B2D)"/>
<path d="M463.639 -0.00012207C465.671 -0.00012207 467.318 1.64727 467.318 3.67944C467.318 5.71167 465.671 7.35901 463.639 7.35901C461.606 7.35895 459.959 5.71164 459.959 3.67944C459.959 1.6473 461.606 -6.451e-05 463.639 -0.00012207Z" fill="var(--fill-0, #EC4B2D)"/>
<path d="M482.037 -0.00012207C484.069 0.000137336 485.717 1.64743 485.717 3.67944C485.717 5.71151 484.069 7.35875 482.037 7.35901C480.005 7.35895 478.358 5.71164 478.358 3.67944C478.358 1.6473 480.005 -6.451e-05 482.037 -0.00012207Z" fill="var(--fill-0, #EC4B2D)"/>
<path d="M500.435 -0.00012207C502.468 -0.00012207 504.115 1.64727 504.115 3.67944C504.115 5.71167 502.468 7.35901 500.435 7.35901C498.403 7.35892 496.756 5.71161 496.756 3.67944C496.756 1.64732 498.403 -2.99208e-05 500.435 -0.00012207Z" fill="var(--fill-0, #EC4B2D)"/>
<path d="M518.834 -0.00012207C520.866 0.000120043 522.514 1.64742 522.514 3.67944C522.514 5.71152 520.866 7.35877 518.834 7.35901C516.802 7.35895 515.155 5.71164 515.155 3.67944C515.155 1.6473 516.802 -6.451e-05 518.834 -0.00012207Z" fill="var(--fill-0, #EC4B2D)"/>
<path d="M537.232 -0.00012207C539.264 -0.00012207 540.912 1.64727 540.912 3.67944C540.912 5.71167 539.264 7.35901 537.232 7.35901C535.2 7.3589 533.552 5.7116 533.552 3.67944C533.552 1.64733 535.2 -1.26266e-05 537.232 -0.00012207Z" fill="var(--fill-0, #EC4B2D)"/>
<path d="M555.631 -0.00012207C557.663 8.54583e-05 559.31 1.64739 559.31 3.67944C559.31 5.71154 557.663 7.3588 555.631 7.35901C553.599 7.35895 551.951 5.71164 551.951 3.67944C551.951 1.6473 553.599 -6.451e-05 555.631 -0.00012207Z" fill="var(--fill-0, #EC4B2D)"/>
<path d="M574.029 -0.00012207C576.061 -0.00012207 577.708 1.64727 577.708 3.67944C577.708 5.71167 576.061 7.35901 574.029 7.35901C571.997 7.35888 570.349 5.71159 570.349 3.67944C570.349 1.64734 571.997 4.66717e-06 574.029 -0.00012207Z" fill="var(--fill-0, #EC4B2D)"/>
<path d="M592.428 -0.00012207C594.46 8.54583e-05 596.107 1.64739 596.107 3.67944C596.107 5.71154 594.46 7.3588 592.428 7.35901C590.395 7.35895 588.748 5.71164 588.748 3.67944C588.748 1.6473 590.395 -6.451e-05 592.428 -0.00012207Z" fill="var(--fill-0, #EC4B2D)"/>
<path d="M610.825 -0.00012207C612.858 -0.00012207 614.505 1.64727 614.505 3.67944C614.505 5.71167 612.858 7.35901 610.825 7.35901C608.793 7.35885 607.146 5.71157 607.146 3.67944C607.146 1.64737 608.793 3.92539e-05 610.825 -0.00012207Z" fill="var(--fill-0, #EC4B2D)"/>
<path d="M629.224 -0.00012207C631.256 5.08724e-05 632.904 1.64737 632.904 3.67944C632.904 5.71156 631.256 7.35884 629.224 7.35901C627.192 7.35895 625.545 5.71164 625.545 3.67944C625.545 1.6473 627.192 -6.451e-05 629.224 -0.00012207Z" fill="var(--fill-0, #EC4B2D)"/>
<path d="M647.622 -0.00012207C649.654 -0.00012207 651.302 1.64727 651.302 3.67944C651.302 5.71167 649.654 7.35901 647.622 7.35901C645.59 7.35885 643.942 5.71157 643.942 3.67944C643.943 1.64737 645.59 3.92539e-05 647.622 -0.00012207Z" fill="var(--fill-0, #EC4B2D)"/>
<path d="M666.021 -0.00012207C668.053 1.62856e-05 669.7 1.64735 669.7 3.67944C669.7 5.71159 668.053 7.35887 666.021 7.35901C663.989 7.35895 662.341 5.71164 662.341 3.67944C662.341 1.6473 663.989 -6.451e-05 666.021 -0.00012207Z" fill="var(--fill-0, #EC4B2D)"/>
<path d="M684.419 -0.00012207C686.451 -0.00012207 688.098 1.64727 688.098 3.67944C688.098 5.71167 686.451 7.35901 684.419 7.35901C682.387 7.35881 680.739 5.71155 680.739 3.67944C680.739 1.64739 682.387 7.38405e-05 684.419 -0.00012207Z" fill="var(--fill-0, #EC4B2D)"/>
<path d="M702.818 -0.00012207C704.85 1.62856e-05 706.497 1.64735 706.497 3.67944C706.497 5.71159 704.85 7.35887 702.818 7.35901C700.785 7.35895 699.138 5.71164 699.138 3.67944C699.138 1.6473 700.785 -6.451e-05 702.818 -0.00012207Z" fill="var(--fill-0, #EC4B2D)"/>
<path d="M721.215 -0.00012207C723.248 -0.00012207 724.895 1.64727 724.895 3.67944C724.895 5.71167 723.248 7.35901 721.215 7.35901C719.183 7.35878 717.536 5.71153 717.536 3.67944C717.536 1.64741 719.183 0.000108426 721.215 -0.00012207Z" fill="var(--fill-0, #EC4B2D)"/>
</g>
<g id="Product Info Background">
</g>
</g>
</svg>
