<svg preserveAspectRatio="none" width="100%" height="100%" overflow="visible" style="display: block;" viewBox="0 0 22 22" fill="none" xmlns="http://www.w3.org/2000/svg">
<g id="Group">
<path id="Vector" d="M18.0684 3.93273C16.5113 2.37395 14.483 1.37305 12.2985 1.08553C10.1141 0.798006 7.89584 1.23996 5.9884 2.34273M2.9984 5.00273H3.0084M1.2884 8.62273C0.913492 10.1498 0.903976 11.7437 1.26062 13.2752C1.61727 14.8066 2.33003 16.2323 3.34103 17.4366C4.35203 18.6409 5.63278 19.5899 7.0793 20.2064C8.52581 20.8229 10.0973 21.0896 11.6662 20.9848C13.2352 20.88 14.7573 20.4068 16.109 19.6034C17.4607 18.8001 18.6039 17.6893 19.4458 16.3613C20.2877 15.0333 20.8046 13.5254 20.9545 11.9602C21.1043 10.3949 20.883 8.81639 20.3084 7.35273" stroke="var(--stroke-0, #161816)" stroke-width="2" stroke-linecap="round" stroke-linejoin="round"/>
<path id="Vector_2" d="M15.2384 6.76273C14.6629 6.1839 13.9754 5.72857 13.2178 5.4246C12.4603 5.12064 11.6487 4.97444 10.8328 4.99494C10.0168 5.01544 9.21357 5.20222 8.47227 5.54384C7.73096 5.88546 7.06715 6.37474 6.52146 6.98175C5.97577 7.58876 5.55966 8.30072 5.29861 9.07408C5.03756 9.84745 4.93704 10.6659 5.00322 11.4795C5.06939 12.293 5.30086 13.0845 5.68347 13.8055C6.06608 14.5265 6.59178 15.1619 7.2284 15.6727M10.9984 17.0027H11.0084M16.9884 10.6627C17.0428 11.6141 16.8698 12.5648 16.4838 13.436C16.0977 14.3072 15.5097 15.0739 14.7684 15.6727" stroke="var(--stroke-0, #161816)" stroke-width="2" stroke-linecap="round" stroke-linejoin="round"/>
<path id="Vector_3" d="M10.9984 13.0027C12.103 13.0027 12.9984 12.1073 12.9984 11.0027C12.9984 9.89816 12.103 9.00273 10.9984 9.00273C9.89383 9.00273 8.9984 9.89816 8.9984 11.0027C8.9984 12.1073 9.89383 13.0027 10.9984 13.0027Z" stroke="var(--stroke-0, #161816)" stroke-width="2" stroke-linecap="round" stroke-linejoin="round"/>
<path id="Vector_4" d="M12.4084 9.59273L18.0684 3.93273" stroke="var(--stroke-0, #161816)" stroke-width="2" stroke-linecap="round" stroke-linejoin="round"/>
</g>
</svg>
