<svg preserveAspectRatio="none" width="100%" height="100%" overflow="visible" style="display: block;" viewBox="0 0 24 24" fill="none" xmlns="http://www.w3.org/2000/svg">
<g id="material-symbols:science">
<path id="Vector" d="M5 21C4.15 21 3.546 20.621 3.188 19.863C2.83 19.105 2.91733 18.4007 3.45 17.75L9 11V5H8C7.71667 5 7.47933 4.904 7.288 4.712C7.09667 4.52 7.00067 4.28267 7 4C6.99933 3.71733 7.09533 3.48 7.288 3.288C7.48067 3.096 7.718 3 8 3H16C16.2833 3 16.521 3.096 16.713 3.288C16.905 3.48 17.0007 3.71733 17 4C16.9993 4.28267 16.9033 4.52033 16.712 4.713C16.5207 4.90567 16.2833 5.00133 16 5H15V11L20.55 17.75C21.0833 18.4 21.171 19.1043 20.813 19.863C20.455 20.6217 19.8507 21.0007 19 21H5Z" fill="var(--fill-0, #161816)"/>
</g>
</svg>
