<svg preserveAspectRatio="none" width="100%" height="100%" overflow="visible" style="display: block;" viewBox="0 0 40 40" fill="none" xmlns="http://www.w3.org/2000/svg">
<g id="material-symbols:science">
<path id="Vector" d="M8.33333 35C6.91667 35 5.91 34.3683 5.31333 33.105C4.71667 31.8417 4.86222 30.6678 5.75 29.5833L15 18.3333V8.33333H13.3333C12.8611 8.33333 12.4656 8.17333 12.1467 7.85333C11.8278 7.53333 11.6678 7.13778 11.6667 6.66667C11.6656 6.19556 11.8256 5.8 12.1467 5.48C12.4678 5.16 12.8633 5 13.3333 5H26.6667C27.1389 5 27.535 5.16 27.855 5.48C28.175 5.8 28.3344 6.19556 28.3333 6.66667C28.3322 7.13778 28.1722 7.53389 27.8533 7.855C27.5344 8.17611 27.1389 8.33556 26.6667 8.33333H25V18.3333L34.25 29.5833C35.1389 30.6667 35.285 31.8406 34.6883 33.105C34.0917 34.3694 33.0844 35.0011 31.6667 35H8.33333Z" fill="var(--fill-0, #2DED9B)"/>
</g>
</svg>
