<svg preserveAspectRatio="none" width="100%" height="100%" overflow="visible" style="display: block;" viewBox="0 0 40 40" fill="none" xmlns="http://www.w3.org/2000/svg">
<g id="streamline-ultimate:fitness-shaker-bold" clip-path="url(#clip0_0_7)">
<path id="Vector" d="M25 3.33333H22.9167C22.6957 3.33333 22.4837 3.24554 22.3274 3.08926C22.1711 2.93298 22.0833 2.72101 22.0833 2.5V2.08333C22.0833 1.5308 21.8638 1.00089 21.4731 0.610194C21.0824 0.219493 20.5525 0 20 0C19.4475 0 18.9176 0.219493 18.5269 0.610194C18.1362 1.00089 17.9167 1.5308 17.9167 2.08333V2.5C17.9167 2.72101 17.8289 2.93298 17.6726 3.08926C17.5163 3.24554 17.3043 3.33333 17.0833 3.33333H15C13.8949 3.33333 12.8351 3.77232 12.0537 4.55372C11.2723 5.33512 10.8333 6.39493 10.8333 7.5V9.16667C10.8333 9.38768 10.9211 9.59964 11.0774 9.75592C11.2337 9.9122 11.4457 10 11.6667 10H28.3333C28.5543 10 28.7663 9.9122 28.9226 9.75592C29.0789 9.59964 29.1667 9.38768 29.1667 9.16667V7.5C29.1667 6.39493 28.7277 5.33512 27.9463 4.55372C27.1649 3.77232 26.1051 3.33333 25 3.33333ZM28.3333 12.5H11.6667C11.4457 12.5 11.2337 12.5878 11.0774 12.7441C10.9211 12.9004 10.8333 13.1123 10.8333 13.3333V15.1667C10.8506 15.7901 11.1003 16.3845 11.5333 16.8333L14 19.4667C14.1516 19.6196 14.2367 19.8263 14.2367 20.0417C14.2367 20.2571 14.1516 20.4637 14 20.6167L11.55 23.1C11.3206 23.3297 11.139 23.6026 11.016 23.9031C10.893 24.2035 10.8309 24.5254 10.8333 24.85V35.8333C10.8333 36.3805 10.9411 36.9223 11.1505 37.4278C11.3599 37.9334 11.6668 38.3927 12.0537 38.7796C12.4406 39.1665 12.9 39.4734 13.4055 39.6828C13.911 39.8922 14.4528 40 15 40H25C25.5472 40 26.089 39.8922 26.5945 39.6828C27.1 39.4734 27.5594 39.1665 27.9463 38.7796C28.3332 38.3927 28.6401 37.9334 28.8495 37.4278C29.0589 36.9223 29.1667 36.3805 29.1667 35.8333V24.8667C29.1606 24.1968 28.8912 23.5562 28.4167 23.0833L25.95 20.6667C25.7898 20.5135 25.6944 20.3047 25.6833 20.0833C25.682 19.974 25.7036 19.8657 25.7466 19.7652C25.7897 19.6648 25.8533 19.5744 25.9333 19.5L28.45 16.9C28.6794 16.6703 28.861 16.3974 28.984 16.0969C29.107 15.7965 29.1691 15.4746 29.1667 15.15V13.3333C29.1667 13.1123 29.0789 12.9004 28.9226 12.7441C28.7663 12.5878 28.5543 12.5 28.3333 12.5ZM23.9833 28.3333L19.35 33.7333C19.2949 33.7978 19.2214 33.8439 19.1393 33.8655C19.0573 33.8871 18.9706 33.8831 18.8909 33.8541C18.8112 33.8251 18.7422 33.7725 18.6932 33.7033C18.6442 33.634 18.6175 33.5515 18.6167 33.4667V29.8667C18.6167 29.6457 18.5289 29.4337 18.3726 29.2774C18.2163 29.1211 18.0043 29.0333 17.7833 29.0333H16.3333C16.252 29.0336 16.1724 29.0101 16.1043 28.9657C16.0362 28.9212 15.9825 28.8579 15.95 28.7833C15.9105 28.7149 15.8897 28.6373 15.8897 28.5583C15.8897 28.4793 15.9105 28.4017 15.95 28.3333L20.5833 22.9333C20.6385 22.8689 20.712 22.8227 20.794 22.8012C20.876 22.7796 20.9627 22.7835 21.0424 22.8125C21.1221 22.8415 21.1911 22.8942 21.2401 22.9634C21.2891 23.0326 21.3158 23.1152 21.3167 23.2V26.8C21.3167 27.021 21.4045 27.233 21.5607 27.3893C21.717 27.5455 21.929 27.6333 22.15 27.6333H23.6C23.6813 27.633 23.7609 27.6566 23.8291 27.701C23.8972 27.7454 23.9508 27.8088 23.9833 27.8833C24.0228 27.9517 24.0436 28.0293 24.0436 28.1083C24.0436 28.1873 24.0228 28.2649 23.9833 28.3333Z" fill="var(--fill-0, #EC4B2D)"/>
</g>
<defs>
<clipPath id="clip0_0_7">
<rect width="40" height="40" fill="white"/>
</clipPath>
</defs>
</svg>
