<svg preserveAspectRatio="none" width="100%" height="100%" overflow="visible" style="display: block;" viewBox="0 0 24 24" fill="none" xmlns="http://www.w3.org/2000/svg">
<g id="material-symbols:water-bottle-sharp">
<path id="Vector" d="M8 22L7 11L7.475 10.75C7.60833 10.6667 7.725 10.5667 7.825 10.45C7.925 10.3333 7.975 10.1917 7.975 10.025C7.975 9.875 7.94167 9.73333 7.875 9.6C7.80833 9.46667 7.70833 9.36667 7.575 9.3L7 9L8 5H11.5V4H10V2H15V4H13.5V5H17L17.975 8.95L17.4 9.25C17.2667 9.31667 17.1667 9.41667 17.1 9.55C17.0333 9.68333 17 9.825 17 9.975C17 10.1417 17.05 10.2877 17.15 10.413C17.25 10.5383 17.3667 10.6423 17.5 10.725L17.975 10.95L17 22H8Z" fill="var(--fill-0, #161816)"/>
</g>
</svg>
