<svg width="135" height="40" viewBox="0 0 135 40" fill="none" xmlns="http://www.w3.org/2000/svg">
<g clip-path="url(#clip0_105_924)">
<path d="M129.928 0H4.93821C2.17639 0 -0.0625 2.23889 -0.0625 5.0007V34.9993C-0.0625 37.7611 2.17639 40 4.93821 40H129.928C132.689 40 134.928 37.7611 134.928 34.9993V5.0007C134.928 2.23889 132.689 0 129.928 0Z" fill="black"/>
<path d="M129.933 0.801467C132.247 0.801467 134.133 2.68661 134.133 5.0007V34.9993C134.133 37.3134 132.247 39.1985 129.933 39.1985H4.93821C2.62411 39.1985 0.738967 37.3134 0.738967 34.9993V5.0007C0.738967 2.68661 2.62411 0.801467 4.93821 0.801467H129.933ZM129.933 0H4.93821C2.18951 0 -0.0625 2.25201 -0.0625 5.0007V34.9993C-0.0625 37.748 2.18951 40 4.93821 40H129.933C132.682 40 134.934 37.748 134.934 34.9993V5.0007C134.934 2.25201 132.682 0 129.933 0Z" fill="#A6A6A6"/>
<path d="M47.3548 10.2441C47.3548 11.0795 47.1064 11.7511 46.6097 12.2478C46.0453 12.8404 45.3116 13.1339 44.4085 13.1339C43.5055 13.1339 42.8056 12.8348 42.2017 12.2365C41.5977 11.6382 41.293 10.8932 41.293 10.0014C41.293 9.10965 41.5977 8.37027 42.2017 7.76634C42.8056 7.16806 43.545 6.86328 44.4085 6.86328C44.8375 6.86328 45.2495 6.94794 45.639 7.11162C46.0284 7.28095 46.3445 7.50107 46.5759 7.78328L46.051 8.31382C45.6559 7.83972 45.1084 7.60266 44.4085 7.60266C43.7764 7.60266 43.2289 7.82278 42.7717 8.26867C42.3146 8.71456 42.0831 9.29026 42.0831 9.99578C42.0831 10.7013 42.3146 11.2826 42.7717 11.7229C43.2345 12.1688 43.7764 12.3889 44.4085 12.3889C45.0802 12.3889 45.639 12.1631 46.0848 11.7172C46.3727 11.4237 46.542 11.023 46.5872 10.5038H44.4085V9.7813H47.3153C47.3435 9.93934 47.3548 10.0861 47.3548 10.2328V10.2441Z" fill="white" stroke="white" stroke-width="0.112883" stroke-miterlimit="10"/>
<path d="M51.9659 7.73813H49.2342V9.64021H51.7007V10.3627H49.2342V12.2647H51.9659V13.0041H48.4609V7.00439H51.9659V7.74378V7.73813Z" fill="white" stroke="white" stroke-width="0.112883" stroke-miterlimit="10"/>
<path d="M55.2171 12.9984H54.4439V7.73804H52.7676V6.99866H56.8878V7.73804H55.2115V12.9984H55.2171Z" fill="white" stroke="white" stroke-width="0.112883" stroke-miterlimit="10"/>
<path d="M59.873 12.9984V6.99866H60.6406V12.9984H59.873Z" fill="white" stroke="white" stroke-width="0.112883" stroke-miterlimit="10"/>
<path d="M64.0667 12.9984H63.2935V7.73804H61.6172V6.99866H65.7374V7.73804H64.0611V12.9984H64.0667Z" fill="white" stroke="white" stroke-width="0.112883" stroke-miterlimit="10"/>
<path d="M73.5444 12.2252C72.9518 12.8347 72.2237 13.1339 71.3432 13.1339C70.4627 13.1339 69.7346 12.8291 69.142 12.2252C68.5494 11.6213 68.2559 10.8762 68.2559 10.0014C68.2559 9.12655 68.5494 8.38152 69.142 7.7776C69.729 7.16804 70.4627 6.8689 71.3432 6.8689C72.2237 6.8689 72.9461 7.17368 73.5388 7.78325C74.1314 8.39281 74.4249 9.13219 74.4249 10.0014C74.4249 10.8706 74.1314 11.6213 73.5388 12.2252H73.5444ZM69.7177 11.7229C70.1636 12.1744 70.7054 12.3945 71.3488 12.3945C71.9923 12.3945 72.5341 12.1687 72.98 11.7229C73.4259 11.2713 73.646 10.7013 73.646 10.0014C73.646 9.30152 73.4202 8.72582 72.98 8.27993C72.5398 7.8284 71.9923 7.60828 71.3488 7.60828C70.7054 7.60828 70.1636 7.83404 69.7177 8.27993C69.2774 8.73146 69.0517 9.30152 69.0517 10.0014C69.0517 10.7013 69.2774 11.277 69.7177 11.7229Z" fill="white" stroke="white" stroke-width="0.112883" stroke-miterlimit="10"/>
<path d="M75.5135 12.9984V6.99866H76.4504L79.3684 11.6664H79.4023L79.3684 10.5093V6.99866H80.1417V12.9984H79.3345L76.2811 8.10491H76.2472L76.2811 9.26196V12.9984H75.5078H75.5135Z" fill="white" stroke="white" stroke-width="0.112883" stroke-miterlimit="10"/>
<path d="M68.0743 21.7524C65.7207 21.7524 63.8073 23.5416 63.8073 26.0024C63.8073 28.4633 65.7263 30.2524 68.0743 30.2524C70.4222 30.2524 72.3412 28.4463 72.3412 26.0024C72.3412 23.5585 70.4222 21.7524 68.0743 21.7524ZM68.0743 28.5818C66.7874 28.5818 65.6755 27.5207 65.6755 26.0024C65.6755 24.4841 66.7874 23.423 68.0743 23.423C69.3611 23.423 70.473 24.4672 70.473 26.0024C70.473 27.5376 69.3611 28.5818 68.0743 28.5818ZM58.7615 21.7524C56.4078 21.7524 54.4945 23.5416 54.4945 26.0024C54.4945 28.4633 56.4135 30.2524 58.7615 30.2524C61.1094 30.2524 63.0284 28.4463 63.0284 26.0024C63.0284 23.5585 61.1094 21.7524 58.7615 21.7524ZM58.7615 28.5818C57.4746 28.5818 56.3627 27.5207 56.3627 26.0024C56.3627 24.4841 57.4746 23.423 58.7615 23.423C60.0483 23.423 61.1602 24.4672 61.1602 26.0024C61.1602 27.5376 60.0483 28.5818 58.7615 28.5818ZM47.682 23.0562V24.8623H51.9998C51.87 25.8782 51.5313 26.6176 51.0177 27.1369C50.3912 27.7634 49.4091 28.4576 47.682 28.4576C45.0236 28.4576 42.9466 26.3128 42.9466 23.6545C42.9466 20.9961 45.0236 18.8513 47.682 18.8513C49.1156 18.8513 50.1654 19.4157 50.933 20.1382L52.2086 18.8626C51.1306 17.8297 49.697 17.0452 47.682 17.0452C44.0415 17.0452 40.9824 20.0083 40.9824 23.6488C40.9824 27.2893 44.0415 30.2524 47.682 30.2524C49.6462 30.2524 51.1306 29.609 52.2876 28.4012C53.4785 27.2103 53.8511 25.5339 53.8511 24.1794C53.8511 23.7617 53.8172 23.3722 53.7551 23.0505H47.682V23.0562ZM92.9875 24.4559C92.6319 23.5077 91.5539 21.7467 89.347 21.7467C87.1402 21.7467 85.334 23.4682 85.334 25.9968C85.334 28.3786 87.1402 30.2468 89.5559 30.2468C91.5031 30.2468 92.6319 29.0559 93.1004 28.3617L91.6498 27.3965C91.1644 28.1077 90.5041 28.5705 89.5559 28.5705C88.6076 28.5705 87.9304 28.1359 87.4958 27.2836L93.185 24.93L92.9931 24.4446L92.9875 24.4559ZM87.1853 25.8726C87.1345 24.2302 88.4609 23.3892 89.4091 23.3892C90.1485 23.3892 90.7806 23.7617 90.9895 24.2922L87.1853 25.8726ZM82.5628 29.9985H84.431V17.4967H82.5628V29.9985ZM79.5037 22.7006H79.4416C79.0239 22.2039 78.2168 21.7524 77.2008 21.7524C75.073 21.7524 73.1258 23.6206 73.1258 26.0193C73.1258 28.4181 75.073 30.2581 77.2008 30.2581C78.2168 30.2581 79.0183 29.8066 79.4416 29.2929H79.5037V29.9025C79.5037 31.528 78.6345 32.3972 77.2291 32.3972C76.0833 32.3972 75.3778 31.5732 75.0843 30.8846L73.4588 31.5619C73.9272 32.6907 75.169 34.0735 77.2291 34.0735C79.419 34.0735 81.2703 32.7867 81.2703 29.6429V22.0064H79.498V22.7006H79.5037ZM77.3589 28.5818C76.072 28.5818 74.9883 27.5038 74.9883 26.0193C74.9883 24.5349 76.0664 23.423 77.3589 23.423C78.6514 23.423 79.6335 24.518 79.6335 26.0193C79.6335 27.5207 78.6345 28.5818 77.3589 28.5818ZM101.742 17.4967H97.2714V29.9985H99.1396V25.263H101.747C103.813 25.263 105.85 23.7673 105.85 21.3799C105.85 18.9924 103.819 17.4967 101.747 17.4967H101.742ZM101.787 23.5246H99.134V19.2407H101.787C103.181 19.2407 103.971 20.3978 103.971 21.3855C103.971 22.3732 103.181 23.5303 101.787 23.5303V23.5246ZM113.318 21.7298C111.969 21.7298 110.569 22.3224 109.988 23.6432L111.647 24.3374C112.003 23.6432 112.657 23.423 113.352 23.423C114.317 23.423 115.299 24.0044 115.316 25.0316V25.1614C114.977 24.9695 114.255 24.676 113.368 24.676C111.585 24.676 109.768 25.6581 109.768 27.4925C109.768 29.1631 111.229 30.2412 112.872 30.2412C114.125 30.2412 114.819 29.6767 115.254 29.022H115.316V29.9872H117.116V25.1953C117.116 22.9772 115.457 21.7354 113.318 21.7354V21.7298ZM113.098 28.5761C112.488 28.5761 111.636 28.2714 111.636 27.515C111.636 26.5499 112.697 26.1774 113.611 26.1774C114.43 26.1774 114.819 26.3523 115.316 26.595C115.169 27.7521 114.176 28.5705 113.098 28.5705V28.5761ZM123.675 22.0007L121.536 27.4191H121.473L119.255 22.0007H117.246L120.576 29.5752L118.68 33.7913H120.627L125.757 22.0007H123.68H123.675ZM106.872 29.9985H108.74V17.4967H106.872V29.9985Z" fill="white"/>
<path d="M20.6585 19.4214L10.0137 30.721C10.0137 30.721 10.0137 30.721 10.0137 30.7266C10.341 31.9514 11.4586 32.8545 12.7906 32.8545C13.3211 32.8545 13.8235 32.7077 14.2468 32.4594L14.2806 32.4368L26.2631 25.5227L20.6529 19.4158L20.6585 19.4214Z" fill="#EA4335"/>
<path d="M31.4275 17.4969H31.4162L26.2406 14.4885L20.4102 19.6755L26.2575 25.5228L31.4049 22.554C32.308 22.0686 32.9176 21.1147 32.9176 20.0198C32.9176 18.9248 32.3136 17.9822 31.4219 17.4969H31.4275Z" fill="#FBBC04"/>
<path d="M10.0081 9.27893C9.94597 9.51598 9.91211 9.76433 9.91211 10.0183V29.9873C9.91211 30.2413 9.94597 30.4896 10.0081 30.7266L21.0198 19.7149L10.0081 9.27893Z" fill="#4285F4"/>
<path d="M20.7375 19.9971L26.2462 14.4885L14.275 7.54618C13.8404 7.28655 13.3324 7.13416 12.7906 7.13416C11.4586 7.13416 10.341 8.03722 10.0137 9.26764L20.7375 19.9915V19.9971Z" fill="#34A853"/>
</g>
<defs>
<clipPath id="clip0_105_924">
<rect width="134.872" height="40" fill="white"/>
</clipPath>
</defs>
</svg>
